<?xml version="1.0" encoding="utf-8"?>
<!-- Generator: Adobe Illustrator 18.1.0, SVG Export Plug-In . SVG Version: 6.00 Build 0)  -->
<!DOCTYPE svg PUBLIC "-//W3C//DTD SVG 1.1//EN" "http://www.w3.org/Graphics/SVG/1.1/DTD/svg11.dtd">
<svg version="1.1" id="Layer_1" xmlns="http://www.w3.org/2000/svg" xmlns:xlink="http://www.w3.org/1999/xlink" x="0px" y="0px"
	 viewBox="0 0 32 32" enable-background="new 0 0 32 32" xml:space="preserve">
<g>
	<g>
		<path d="M16,5.92C10.43,5.92,5.92,10.43,5.92,16c0,5.57,4.51,10.08,10.08,10.08c5.57,0,10.08-4.51,10.08-10.08
			C26.08,10.43,21.57,5.92,16,5.92z M16,23.56c-4.18,0-7.56-3.39-7.56-7.56c0-4.18,3.39-7.56,7.56-7.56s7.56,3.39,7.56,7.56
			C23.56,20.18,20.18,23.56,16,23.56z"/>
	</g>
	<g>
		<path d="M27.08,4.92l-1.8,1.8c2.38,2.38,3.85,5.66,3.85,9.28c0,3.63-1.47,6.91-3.85,9.28l1.8,1.8c2.84-2.84,4.59-6.75,4.59-11.08
			C31.67,11.67,29.92,7.76,27.08,4.92z"/>
		<path d="M2.87,16c0-3.63,1.47-6.91,3.85-9.28l-1.8-1.8C2.08,7.76,0.33,11.67,0.33,16c0,4.33,1.75,8.25,4.59,11.08l1.8-1.8
			C4.34,22.91,2.87,19.63,2.87,16z"/>
	</g>
</g>
</svg>
