<?xml version="1.0" encoding="utf-8"?>
<!-- Generator: Adobe Illustrator 18.1.0, SVG Export Plug-In . SVG Version: 6.00 Build 0)  -->
<!DOCTYPE svg PUBLIC "-//W3C//DTD SVG 1.1//EN" "http://www.w3.org/Graphics/SVG/1.1/DTD/svg11.dtd">
<svg version="1.1" id="Layer_1" xmlns="http://www.w3.org/2000/svg" xmlns:xlink="http://www.w3.org/1999/xlink" x="0px" y="0px"
	 viewBox="0 0 32 32" enable-background="new 0 0 32 32" xml:space="preserve">
<path d="M25.3,7.5c0,1.6-1.3,2.9-2.9,2.9c-1.6,0-2.9-1.3-2.9-2.9s1.3-2.9,2.9-2.9C24,4.5,25.3,5.9,25.3,7.5z
	 M21.2,30.4l-4.4-11.9h-2.9l4.4,11.9H21.2z M14.9,23.8l-7.2-0.3l-6,7.1l-1.2-4.2l6.5-7.9h5.9l0.1,0.3L14.9,23.8z M23.9,16.5
	c-0.3,0.8-3.7,6.4-4.3,7.4l-2.1-5.7l-0.2-0.5h0c0.7-1.1,1.9-3,2.5-3.9c1-1.2,2.8-1.3,3.6-0.6C24.3,13.8,24.2,15.6,23.9,16.5z
	 M25.4,13.8L24.1,12l6.2-4.8L31.7,9L25.4,13.8z M10.3,2.2c-3.7,0-6.6,3-6.6,6.6c0,3.7,3,6.6,6.6,6.6c3.7,0,6.6-3,6.6-6.6
	C17,5.1,14,2.2,10.3,2.2z M11.5,12l-2.3,0V9.8h2.3V12z M11.5,8.8l-2.3,0V5.1h2.3V8.8z"/>
</svg>
