<?xml version="1.0" encoding="utf-8"?>
<!-- Generator: Adobe Illustrator 18.1.0, SVG Export Plug-In . SVG Version: 6.00 Build 0)  -->
<!DOCTYPE svg PUBLIC "-//W3C//DTD SVG 1.1//EN" "http://www.w3.org/Graphics/SVG/1.1/DTD/svg11.dtd">
<svg version="1.1" id="Layer_1" xmlns="http://www.w3.org/2000/svg" xmlns:xlink="http://www.w3.org/1999/xlink" x="0px" y="0px"
	 viewBox="0 0 32 32" enable-background="new 0 0 32 32" xml:space="preserve">
<g>
	<rect x="14.5" y="14.1" fill="#231F20" width="3.1" height="5.1"/>
	<rect x="14.5" y="20.4" fill="#231F20" width="3.1" height="3.1"/>
</g>
<path d="M29.6,29.5C29.6,29.5,29.6,29.5,29.6,29.5H2.4c-0.6,0-1.2-0.3-1.5-0.8c-0.3-0.5-0.3-1.2,0-1.7L14.5,3.4
	c0.3-0.5,0.9-0.8,1.5-0.8c0.6,0,1.2,0.3,1.5,0.8l13.5,23.4c0.2,0.3,0.4,0.7,0.4,1.1C31.3,28.7,30.5,29.5,29.6,29.5z M5.3,26.1h21.4
	L16,7.6L5.3,26.1z"/>
</svg>
