<?xml version="1.0" encoding="utf-8"?>
<!-- Generator: Adobe Illustrator 18.1.0, SVG Export Plug-In . SVG Version: 6.00 Build 0)  -->
<!DOCTYPE svg PUBLIC "-//W3C//DTD SVG 1.1//EN" "http://www.w3.org/Graphics/SVG/1.1/DTD/svg11.dtd">
<svg version="1.1" id="Layer_1" xmlns="http://www.w3.org/2000/svg" xmlns:xlink="http://www.w3.org/1999/xlink" x="0px" y="0px"
	 viewBox="0 0 195 190" enable-background="new 0 0 195 190" xml:space="preserve">
<path d="M188,101c3.87,0,7-3.13,7-7s-3.13-7-7-7h-26V59h26c3.87,0,7-3.13,7-7s-3.13-7-7-7h-26v-1.08c0-7.68-6.24-13.92-13.92-13.92
	H147V7c0-3.87-3.13-7-7-7s-7,3.13-7,7v23h-30V7c0-3.87-3.13-7-7-7s-7,3.13-7,7v23H60V7c0-3.87-3.13-7-7-7s-7,3.13-7,7v23h-0.08
	C38.24,30,32,36.24,32,43.92V45H7c-3.87,0-7,3.13-7,7s3.13,7,7,7h25v28H7c-3.87,0-7,3.13-7,7s3.13,7,7,7h25v29H7c-3.87,0-7,3.13-7,7
	s3.13,7,7,7h25v1.08c0,7.68,6.24,13.92,13.92,13.92H46v24c0,3.87,3.13,7,7,7s7-3.13,7-7v-24h29v24c0,3.87,3.13,7,7,7s7-3.13,7-7v-24
	h30v24c0,3.87,3.13,7,7,7s7-3.13,7-7v-24h1.08c7.68,0,13.92-6.24,13.92-13.92V144h26c3.87,0,7-3.13,7-7s-3.13-7-7-7h-26v-29H188z
	 M106,145v-9.81l-25-25.08v-8.77c3.8-2.35,6.33-6.55,6.33-11.34c0-7.36-5.97-13.33-13.33-13.33S60.67,82.64,60.67,90
	c0,4.79,2.53,8.99,6.33,11.34v14.55l25,25.09V145H46V44h41v8.9l25,25v9.76c-3.8,2.35-6.33,6.55-6.33,11.34
	c0,7.36,5.97,13.33,13.33,13.33s13.33-5.97,13.33-13.33c0-4.79-2.53-8.99-6.33-11.34V72.1l-25-25V44h47l0.02,101H106z"/>
</svg>
