<?xml version="1.0" encoding="utf-8"?>
<!-- Generator: Adobe Illustrator 16.0.0, SVG Export Plug-In . SVG Version: 6.00 Build 0)  -->
<!DOCTYPE svg PUBLIC "-//W3C//DTD SVG 1.1//EN" "http://www.w3.org/Graphics/SVG/1.1/DTD/svg11.dtd">
<svg version="1.1" id="Layer_1" xmlns="http://www.w3.org/2000/svg" xmlns:xlink="http://www.w3.org/1999/xlink" x="0px" y="0px"
	 width="32px" height="32px" viewBox="0 0 32 32" enable-background="new 0 0 32 32" xml:space="preserve">
<g>
	<path d="M12.755,18.614c-1.682-1.683-2.327-4.004-1.937-6.18c-1.363,0.242-2.669,0.891-3.723,1.943
		c-2.731,2.731-2.732,7.162-0.003,9.896c2.734,2.73,7.164,2.73,9.897-0.004c1.053-1.053,1.7-2.356,1.942-3.721
		C16.759,20.94,14.435,20.293,12.755,18.614z M15.583,22.856c-1.952,1.953-5.117,1.953-7.07,0c-1.953-1.953-1.953-5.119,0-7.071
		c0.121-0.121,0.256-0.219,0.388-0.324c0.337,1.672,1.146,3.271,2.442,4.563c1.297,1.297,2.895,2.107,4.565,2.445
		C15.804,22.6,15.705,22.733,15.583,22.856z"/>
	<polygon points="26.954,14.4 24.149,14.392 23.279,11.729 22.401,14.392 19.597,14.4 21.863,16.053 21.013,18.717 23.279,17.083 
		25.548,18.717 24.687,16.053 	"/>
	<polygon points="11.827,9.663 13.119,8.733 14.41,9.663 13.921,8.146 15.213,7.204 13.614,7.197 13.119,5.68 12.618,7.197 
		11.019,7.204 12.311,8.146 	"/>
</g>
</svg>
