<?xml version="1.0" encoding="utf-8"?>
<!-- Generator: Adobe Illustrator 16.0.0, SVG Export Plug-In . SVG Version: 6.00 Build 0)  -->
<!DOCTYPE svg PUBLIC "-//W3C//DTD SVG 1.1//EN" "http://www.w3.org/Graphics/SVG/1.1/DTD/svg11.dtd">
<svg version="1.1" id="Layer_1" xmlns="http://www.w3.org/2000/svg" xmlns:xlink="http://www.w3.org/1999/xlink" x="0px" y="0px"
	 width="32px" height="32px" viewBox="0 0 32 32" enable-background="new 0 0 32 32" xml:space="preserve">
<g>
	<polygon points="22.383,16.517 20.246,14.379 13.877,20.75 11.734,18.605 9.617,20.724 13.896,25.002 	"/>
	<path d="M25.006,4.773H23v3h2v20H7v-20h2v-3H7.01C5.357,4.773,4,6.171,4,7.826v20.018c0,1.654,1.357,2.93,3.01,2.93h17.996
		c1.652,0,2.994-1.275,2.994-2.93V7.826C28,6.171,26.658,4.773,25.006,4.773z"/>
	<path d="M10.809,9.773h10.367C21.631,9.773,22,9.388,22,8.932V4.773l-2.412-0.857l-0.564-0.884
		c-0.604-1.072-1.737-1.806-3.059-1.806c-1.324,0-2.465,0.739-3.066,1.82L12.34,3.931L10,4.773v4.158
		C10,9.388,10.354,9.773,10.809,9.773z M15.965,3.062c0.932,0,1.688,0.755,1.688,1.688c0,0.931-0.756,1.686-1.688,1.686
		s-1.688-0.755-1.688-1.686C14.277,3.816,15.033,3.062,15.965,3.062z"/>
</g>
</svg>
