<?xml version="1.0" encoding="utf-8"?>
<!-- Generator: Adobe Illustrator 16.0.0, SVG Export Plug-In . SVG Version: 6.00 Build 0)  -->
<!DOCTYPE svg PUBLIC "-//W3C//DTD SVG 1.1//EN" "http://www.w3.org/Graphics/SVG/1.1/DTD/svg11.dtd">
<svg version="1.1" id="Layer_1" xmlns="http://www.w3.org/2000/svg" xmlns:xlink="http://www.w3.org/1999/xlink" x="0px" y="0px"
	 width="32px" height="32px" viewBox="0 0 32 32" enable-background="new 0 0 32 32" xml:space="preserve">
<g>
	<path d="M13.007,25.838c1.865,0,3.379-1.521,3.379-3.4c0-0.039-0.006-0.08-0.008-0.119c0.438-0.318,0.865-0.656,1.277-1.023
		c1.594-1.42,2.84-3.082,3.744-4.885l0.863,0.44c0.088,0.043,0.197,0.026,0.271-0.045c0.047-0.045,0.07-0.108,0.07-0.168v-4.634
		c0.002-0.062-0.023-0.122-0.068-0.167c-0.086-0.092-0.225-0.099-0.305-0.018l-3.705,2.751c-0.01,0.006-0.016,0.012-0.024,0.02
		c-0.092,0.092-0.094,0.243-0.002,0.338c0.019,0.02,0.039,0.033,0.062,0.047l0.905,0.458c-0.78,1.562-1.863,3.003-3.242,4.235
		c-0.217,0.191-0.439,0.371-0.664,0.55c-0.619-0.722-1.533-1.179-2.553-1.179c-1.865,0-3.377,1.523-3.377,3.398
		C9.63,24.317,11.142,25.838,13.007,25.838z M13.007,21.028c0.775,0,1.406,0.629,1.406,1.41c0,0.783-0.631,1.414-1.406,1.414
		c-0.775,0-1.404-0.631-1.404-1.414C11.603,21.659,12.231,21.028,13.007,21.028z"/>
	<polygon points="14.31,12.461 12.896,13.875 11.481,12.461 10.065,13.875 11.481,15.289 10.065,16.704 11.481,18.118 
		12.896,16.704 14.31,18.118 15.724,16.704 14.31,15.289 15.724,13.875 	"/>
	<path d="M25.007,4.773H23v3h2v20H7v-20h2v-3H7.011C5.359,4.773,4,6.171,4,7.826v20.018c0,1.654,1.358,2.93,3.011,2.93h17.996
		c1.652,0,2.993-1.275,2.993-2.93V7.826C28,6.172,26.659,4.773,25.007,4.773z"/>
	<path d="M10.809,9.773h10.368C21.632,9.773,22,9.387,22,8.931V4.773l-2.412-0.857l-0.562-0.884
		c-0.604-1.072-1.738-1.806-3.06-1.806c-1.324,0-2.465,0.739-3.066,1.82L12.34,3.93L10,4.773v4.158
		C10,9.387,10.354,9.773,10.809,9.773z M15.966,3.062c0.932,0,1.688,0.755,1.688,1.688c0,0.931-0.756,1.686-1.688,1.686
		c-0.932,0-1.688-0.755-1.688-1.686C14.278,3.817,15.034,3.062,15.966,3.062z"/>
</g>
</svg>
