<?xml version="1.0" encoding="utf-8"?>
<!-- Generator: Adobe Illustrator 16.0.0, SVG Export Plug-In . SVG Version: 6.00 Build 0)  -->
<!DOCTYPE svg PUBLIC "-//W3C//DTD SVG 1.1//EN" "http://www.w3.org/Graphics/SVG/1.1/DTD/svg11.dtd">
<svg version="1.1" id="Layer_1" xmlns="http://www.w3.org/2000/svg" xmlns:xlink="http://www.w3.org/1999/xlink" x="0px" y="0px"
	 width="37.057px" height="37.057px" viewBox="0 0 37.057 37.057" enable-background="new 0 0 37.057 37.057" xml:space="preserve">
<g>
	<path d="M23.558,13.52h2.983V6.514c0-1.654-1.34-2.996-2.992-2.996h-1.975v2.996h1.982L23.558,13.52L23.558,13.52z"/>
	<path d="M26.211,27.417l-0.713-4.987c0.002-0.23-0.188-0.421-0.42-0.418c-0.231,0.002-0.418,0.188-0.418,0.422l-0.688,4.989h0.008
		c-0.012,0.068-0.02,0.138-0.018,0.205c0,0.627,0.508,1.134,1.135,1.129c0.621,0,1.129-0.51,1.129-1.135
		c0-0.067-0.01-0.135-0.021-0.205H26.211z"/>
	<path d="M32.317,21.633l0.537-0.543l0.179,0.176c0.147,0.146,0.389,0.147,0.536-0.002l0.664-0.672
		c0.147-0.15,0.146-0.391-0.002-0.537l-0.004-0.004l-1.603-1.586l-0.002-0.001c-0.147-0.147-0.387-0.146-0.537,0.005l-0.664,0.671
		c-0.147,0.148-0.146,0.39,0.002,0.535l0.175,0.174l-0.531,0.537c-1.422-1.173-3.188-1.938-5.129-2.111v-0.763h0.25
		c0.209,0,0.381-0.168,0.381-0.379v-0.945c0-0.212-0.172-0.381-0.381-0.381h-0.004h-2.254h-0.002c-0.209,0-0.38,0.169-0.38,0.381
		v0.945c0,0.211,0.171,0.379,0.38,0.379h0.245v0.769c-1.959,0.187-3.739,0.968-5.161,2.169l-1.131,1.131
		c-1.152,1.367-1.914,3.068-2.137,4.934H5.559v-20h1.914V3.518H5.555c-1.652,0-2.992,1.342-2.992,2.997v20.018
		c0,1.654,1.34,2.996,2.992,2.996h10.304c0.873,4.295,4.668,7.527,9.222,7.527c5.198,0,9.414-4.213,9.414-9.412
		C34.494,25.357,33.674,23.264,32.317,21.633z M25.08,34.102c-3.568,0-6.459-2.891-6.459-6.459c0-3.565,2.891-6.459,6.459-6.459
		c3.567,0,6.461,2.894,6.461,6.459C31.541,31.212,28.647,34.102,25.08,34.102z"/>
	<rect x="8.524" y="12.478" width="12" height="2"/>
	<rect x="8.524" y="16.478" width="12" height="2"/>
	<rect x="8.524" y="20.479" width="6" height="2"/>
	<path d="M9.37,8.547h10.368c0.455,0,0.823-0.386,0.823-0.842V3.547L18.148,2.69l-0.563-0.884C16.981,0.734,15.848,0,14.526,0
		c-1.324,0-2.465,0.739-3.066,1.82L10.9,2.704l-2.34,0.842v4.158C8.561,8.161,8.916,8.547,9.37,8.547z M14.526,1.836
		c0.932,0,1.688,0.755,1.688,1.688c0,0.931-0.756,1.686-1.688,1.686c-0.932,0-1.688-0.755-1.688-1.686
		C12.838,2.591,13.595,1.836,14.526,1.836z"/>
</g>
</svg>
