<?xml version="1.0" encoding="utf-8"?>
<!-- Generator: Adobe Illustrator 16.0.0, SVG Export Plug-In . SVG Version: 6.00 Build 0)  -->
<!DOCTYPE svg PUBLIC "-//W3C//DTD SVG 1.1//EN" "http://www.w3.org/Graphics/SVG/1.1/DTD/svg11.dtd">
<svg version="1.1" id="Layer_1" xmlns="http://www.w3.org/2000/svg" xmlns:xlink="http://www.w3.org/1999/xlink" x="0px" y="0px"
	 width="32px" height="32px" viewBox="0 0 32 32" enable-background="new 0 0 32 32" xml:space="preserve">
<g>
	<path d="M17.751,20.025c0,0.105,0.045,0.199,0.115,0.266l3.295,3.297h0.002c0.065,0.072,0.164,0.117,0.271,0.117
		c0.129,0,0.241-0.062,0.309-0.162c0.811-0.94,1.332-2.137,1.426-3.448c0.004-0.023,0.008-0.046,0.008-0.068
		c0-0.205-0.166-0.371-0.371-0.371h-4.68C17.917,19.654,17.751,19.82,17.751,20.025z"/>
	<path d="M16.814,12.608h-0.002c-0.203,0.002-0.369,0.168-0.369,0.371v5.204c0,0.205,0.166,0.371,0.371,0.371h5.201h0.002
		c0.205,0,0.373-0.166,0.373-0.371C22.206,15.188,19.811,12.792,16.814,12.608z"/>
	<path d="M15.14,25.25c1.5,0,2.872-0.555,3.918-1.471v-0.002c0.08-0.066,0.131-0.168,0.131-0.281c0-0.102-0.039-0.192-0.105-0.26
		c0-0.002-0.002-0.002-0.002-0.002l-3.836-3.836v-0.002c-0.066-0.068-0.104-0.158-0.104-0.258H15.14v-5.422
		c0-0.205-0.164-0.369-0.369-0.369h-0.002c-3.117,0.191-5.586,2.779-5.586,5.945C9.183,22.582,11.851,25.25,15.14,25.25z"/>
	<path d="M25.007,4.773H23v3h2v20H7v-20h2v-3H7.011C5.359,4.773,4,6.171,4,7.827v20.017c0,1.654,1.358,2.93,3.011,2.93h17.996
		c1.652,0,2.993-1.275,2.993-2.93V7.827C28,6.172,26.659,4.773,25.007,4.773z"/>
	<path d="M10.809,9.773h10.368C21.632,9.773,22,9.388,22,8.932V4.773l-2.411-0.857l-0.563-0.884
		c-0.604-1.072-1.738-1.806-3.06-1.806c-1.324,0-2.465,0.739-3.066,1.82l-0.561,0.884L10,4.773v4.158
		C10,9.388,10.354,9.773,10.809,9.773z M15.966,3.062c0.933,0,1.688,0.755,1.688,1.688c0,0.931-0.756,1.686-1.688,1.686
		c-0.932,0-1.688-0.755-1.688-1.686C14.278,3.817,15.034,3.062,15.966,3.062z"/>
</g>
</svg>
