<?xml version="1.0" encoding="utf-8"?>
<!-- Generator: Adobe Illustrator 16.0.0, SVG Export Plug-In . SVG Version: 6.00 Build 0)  -->
<!DOCTYPE svg PUBLIC "-//W3C//DTD SVG 1.1//EN" "http://www.w3.org/Graphics/SVG/1.1/DTD/svg11.dtd">
<svg version="1.1" id="Layer_1" xmlns="http://www.w3.org/2000/svg" xmlns:xlink="http://www.w3.org/1999/xlink" x="0px" y="0px"
	 width="32px" height="32px" viewBox="0 0 32 32" enable-background="new 0 0 32 32" xml:space="preserve">
<g>
	<rect x="18" y="22.773" width="4" height="1"/>
	<polygon points="16,23.033 15,24.033 15,24.773 11,24.773 11,20.773 13.849,20.773 14.849,19.773 10,19.773 10,25.773 16,25.773 	
		"/>
	<rect x="18" y="14.773" width="4" height="1"/>
	<path d="M16,11.773h-6v6h6V11.773z M15,16.773h-4v-4h4V16.773z"/>
	<polygon points="12.38,21.197 11.321,22.256 13.46,24.396 17.704,20.152 16.636,19.084 13.45,22.27 	"/>
	<path d="M25.007,4.773H23v3h2v20H7v-20h2v-3H7.011C5.359,4.773,4,6.171,4,7.826v20.018c0,1.654,1.358,2.93,3.011,2.93h17.996
		c1.652,0,2.993-1.275,2.993-2.93V7.826C28,6.171,26.659,4.773,25.007,4.773z"/>
	<path d="M10.809,9.773h10.368C21.632,9.773,22,9.388,22,8.932V4.773l-2.411-0.857l-0.564-0.884
		c-0.604-1.072-1.737-1.806-3.059-1.806c-1.324,0-2.465,0.739-3.066,1.82l-0.561,0.884L10,4.773v4.158
		C10,9.388,10.355,9.773,10.809,9.773z M15.966,3.062c0.932,0,1.688,0.755,1.688,1.688c0,0.931-0.756,1.686-1.688,1.686
		c-0.932,0-1.688-0.755-1.688-1.686C14.278,3.816,15.034,3.062,15.966,3.062z"/>
</g>
</svg>
