<?xml version="1.0" encoding="utf-8"?>
<!-- Generator: Adobe Illustrator 16.0.0, SVG Export Plug-In . SVG Version: 6.00 Build 0)  -->
<!DOCTYPE svg PUBLIC "-//W3C//DTD SVG 1.1//EN" "http://www.w3.org/Graphics/SVG/1.1/DTD/svg11.dtd">
<svg version="1.1" id="Layer_1" xmlns="http://www.w3.org/2000/svg" xmlns:xlink="http://www.w3.org/1999/xlink" x="0px" y="0px"
	 width="32px" height="32px" viewBox="0 0 32 32" enable-background="new 0 0 32 32" xml:space="preserve">
<g>
	<polygon points="11.663,13.912 14.5,19.75 20.337,22.587 17.5,16.75 	"/>
	<path d="M19.166,7.716c0.209-0.448,0.333-0.941,0.333-1.468c0-1.934-1.565-3.499-3.499-3.499c-1.933,0-3.499,1.565-3.499,3.499
		c0,0.526,0.124,1.02,0.333,1.468c-4.532,1.36-7.835,5.559-7.835,10.533c0,6.076,4.925,11,11.001,11s11.001-4.924,11.001-11
		C27.001,13.274,23.698,9.077,19.166,7.716z M16,4.754c0.825,0,1.494,0.669,1.494,1.494S16.825,7.743,16,7.743
		s-1.494-0.669-1.494-1.494S15.175,4.754,16,4.754z M16,26.25c-4.419,0-8.001-3.582-8.001-8c0-4.418,3.582-8.001,8.001-8.001
		s8.001,3.583,8.001,8.001C24.001,22.668,20.419,26.25,16,26.25z"/>
</g>
</svg>
