<?xml version="1.0" encoding="utf-8"?>
<!-- Generator: Adobe Illustrator 18.1.0, SVG Export Plug-In . SVG Version: 6.00 Build 0)  -->
<!DOCTYPE svg PUBLIC "-//W3C//DTD SVG 1.1//EN" "http://www.w3.org/Graphics/SVG/1.1/DTD/svg11.dtd">
<svg version="1.1" id="Layer_1" xmlns="http://www.w3.org/2000/svg" xmlns:xlink="http://www.w3.org/1999/xlink" x="0px" y="0px"
	 viewBox="0 0 160 160" enable-background="new 0 0 160 160" xml:space="preserve">
<g>
	<g>
		<path d="M125.6,34.4C125.6,34.4,125.6,34.4,125.6,34.4C125.6,34.4,125.6,34.4,125.6,34.4l0,91.2c0,0,0,0,0,0l-91.2,0c0,0,0,0,0,0
			c0,0,0,0,0,0V80c0-1.4,0.1-1.8,0.1-1.8c0,0,0.2-0.5,1.4-1.7l24.9-24.9L77,35.5c0.5-0.5,0.9-0.8,1.1-1.1H125.6 M125.6,20h-49
			c-3.6,0-6.4,1.9-9.8,5.3C56.1,36,36.7,55.4,25.7,66.4C21.2,70.9,20,74.7,20,80v45.6c0,7.9,6.5,14.4,14.4,14.4h91.2
			c7.9,0,14.4-6.5,14.4-14.4V34.4C140,26.5,133.5,20,125.6,20L125.6,20z"/>
	</g>
	<rect x="29.7" y="21.1" transform="matrix(0.7071 0.7071 -0.7071 0.7071 37.0118 -15.811)" width="15.8" height="31.3"/>
	<polygon points="111.8,69.3 102,59.5 72.7,88.8 62.9,78.9 53.1,88.6 72.8,108.3 	"/>
</g>
</svg>
