<?xml version="1.0" encoding="utf-8"?>
<!-- Generator: Adobe Illustrator 16.0.0, SVG Export Plug-In . SVG Version: 6.00 Build 0)  -->
<!DOCTYPE svg PUBLIC "-//W3C//DTD SVG 1.1//EN" "http://www.w3.org/Graphics/SVG/1.1/DTD/svg11.dtd">
<svg version="1.1" id="Layer_1" xmlns="http://www.w3.org/2000/svg" xmlns:xlink="http://www.w3.org/1999/xlink" x="0px" y="0px"
	 width="32px" height="32px" viewBox="0 0 32 32" enable-background="new 0 0 32 32" xml:space="preserve">
<path d="M22.999,1.992H9.002c-1.651,0-2.992,1.343-2.992,2.996v22.025c0,1.654,1.341,2.994,2.992,2.994h13.997
	c1.651,0,2.991-1.34,2.991-2.994V4.988C25.991,3.335,24.651,1.992,22.999,1.992z M16.001,28.011c-0.828,0-1.5-0.672-1.5-1.5
	s0.672-1.5,1.5-1.5s1.5,0.672,1.5,1.5S16.829,28.011,16.001,28.011z M23.011,23.015H8.995V5.009h14.016V23.015L23.011,23.015z"/>
</svg>
