<?xml version="1.0" encoding="utf-8"?>
<!-- Generator: Adobe Illustrator 16.0.0, SVG Export Plug-In . SVG Version: 6.00 Build 0)  -->
<!DOCTYPE svg PUBLIC "-//W3C//DTD SVG 1.1//EN" "http://www.w3.org/Graphics/SVG/1.1/DTD/svg11.dtd">
<svg version="1.1" id="Layer_1" xmlns="http://www.w3.org/2000/svg" xmlns:xlink="http://www.w3.org/1999/xlink" x="0px" y="0px"
	 width="32px" height="32px" viewBox="0 0 32 32" enable-background="new 0 0 32 32" xml:space="preserve">
<g>
	<path d="M22.508,2H9.512C7.86,2,6.5,3.342,6.5,4.996v22.025C6.5,28.675,7.859,30,9.512,30h12.996c1.652,0,2.992-1.324,2.992-2.979
		V4.996C25.5,3.342,24.16,2,22.508,2z M16.01,28.016c-0.828,0-1.5-0.672-1.5-1.5s0.672-1.5,1.5-1.5s1.5,0.672,1.5,1.5
		S16.838,28.016,16.01,28.016z M22.5,23h-13V5h13V23z"/>
	<rect x="11.5" y="19" width="9" height="2"/>
	<rect x="11.5" y="15" width="9" height="2"/>
	<path d="M20.5,7h-9v6h9V7z"/>
</g>
</svg>
