<?xml version="1.0" encoding="utf-8"?>
<!-- Generator: Adobe Illustrator 16.0.0, SVG Export Plug-In . SVG Version: 6.00 Build 0)  -->
<!DOCTYPE svg PUBLIC "-//W3C//DTD SVG 1.1//EN" "http://www.w3.org/Graphics/SVG/1.1/DTD/svg11.dtd">
<svg version="1.1" id="Layer_1" xmlns="http://www.w3.org/2000/svg" xmlns:xlink="http://www.w3.org/1999/xlink" x="0px" y="0px"
	 width="32px" height="32px" viewBox="0 0 32 32" enable-background="new 0 0 32 32" xml:space="preserve">
<path d="M23.513,4H8.517C6.865,4,5.5,5.34,5.5,6.994v18.027C5.5,26.675,6.864,28,8.517,28h14.996c1.652,0,2.987-1.324,2.987-2.979
	V6.994C26.501,5.34,25.166,4,23.513,4z M8.502,7h14.981v6H8.502V7z M11.501,25h-3v-3h3V25z M11.501,19h-3v-3h3V19z M17.501,25h-3v-3
	h3V25z M17.501,19h-3v-3h3V19z M23.501,25h-3v-3h3V25z M23.501,19h-3v-3h3V19z"/>
</svg>
