<?xml version="1.0" encoding="utf-8"?>
<!-- Generator: Adobe Illustrator 16.0.0, SVG Export Plug-In . SVG Version: 6.00 Build 0)  -->
<!DOCTYPE svg PUBLIC "-//W3C//DTD SVG 1.1//EN" "http://www.w3.org/Graphics/SVG/1.1/DTD/svg11.dtd">
<svg version="1.1" id="Layer_1" xmlns="http://www.w3.org/2000/svg" xmlns:xlink="http://www.w3.org/1999/xlink" x="0px" y="0px"
	 width="32.031px" height="32.031px" viewBox="0 0 32.031 32.031" enable-background="new 0 0 32.031 32.031" xml:space="preserve">
<g>
	<rect x="14.987" y="5.035" width="12.011" height="1.984"/>
	<rect x="14.987" y="9.035" width="12.011" height="1.984"/>
	<path d="M29.006,0h-16c-1.656,0-3,1.344-3,3v10.023c0,1.655,1.344,3,3,3h3.01v9.014H3.01v-16h5.006V6.021H3.018
		c-1.652,0-2.992,1.342-2.992,2.996v20.02c0,1.654,1.34,2.994,2.992,2.994h12.996c1.652,0,2.992-1.34,2.992-2.994v-6.756
		l6.241-6.258h3.759c1.656,0,3-1.345,3-3V3C32.006,1.343,30.662,0,29.006,0z M9.516,30.031c-0.828,0-1.5-0.672-1.5-1.5
		s0.672-1.5,1.5-1.5s1.5,0.672,1.5,1.5S10.344,30.031,9.516,30.031z M28.998,13.037h-5.006l-4.986,4.986v-4.986h-6.033V2.968h16.025
		V13.037z"/>
</g>
</svg>
