<?xml version="1.0" encoding="utf-8"?>
<!-- Generator: Adobe Illustrator 16.0.0, SVG Export Plug-In . SVG Version: 6.00 Build 0)  -->
<!DOCTYPE svg PUBLIC "-//W3C//DTD SVG 1.1//EN" "http://www.w3.org/Graphics/SVG/1.1/DTD/svg11.dtd">
<svg version="1.1" id="Layer_1" xmlns="http://www.w3.org/2000/svg" xmlns:xlink="http://www.w3.org/1999/xlink" x="0px" y="0px"
	 width="32px" height="32px" viewBox="0 0 32 32" enable-background="new 0 0 32 32" xml:space="preserve">
<g>
	<path d="M7.497,6.5h15v11h3V6.502c0-1.656-1.265-3.002-2.921-3.002H7.601c-1.657,0-3.104,1.346-3.104,3.002v16.023
		c0,1.656,1.447,2.975,3.104,2.975h8.896v-3h-9V6.5z"/>
	<rect x="10.497" y="9.5" width="9" height="2"/>
	<rect x="10.497" y="13.5" width="9" height="2"/>
	<rect x="10.497" y="17.5" width="9" height="2"/>
	<polygon points="27.504,24.031 22.497,19.479 22.497,22.5 19.497,22.5 19.497,25.5 22.497,25.5 22.497,28.5 	"/>
</g>
</svg>
