<?xml version="1.0" encoding="utf-8"?>
<!-- Generator: Adobe Illustrator 16.0.0, SVG Export Plug-In . SVG Version: 6.00 Build 0)  -->
<!DOCTYPE svg PUBLIC "-//W3C//DTD SVG 1.1//EN" "http://www.w3.org/Graphics/SVG/1.1/DTD/svg11.dtd">
<svg version="1.1" id="Layer_1" xmlns="http://www.w3.org/2000/svg" xmlns:xlink="http://www.w3.org/1999/xlink" x="0px" y="0px"
	 width="32px" height="32px" viewBox="0 0 32 32" enable-background="new 0 0 32 32" xml:space="preserve">
<g>
	<rect x="14.512" y="1.993" width="2" height="4"/>
	<rect x="5.016" y="6.498" transform="matrix(-0.707 -0.7072 0.7072 -0.707 6.6752 17.7617)" width="4.002" height="2"/>
	<rect x="1.488" y="14.983" width="4.001" height="2"/>
	<rect x="5.993" y="22.478" transform="matrix(0.7071 0.7071 -0.7071 0.7071 19.3563 2.2247)" width="2" height="4"/>
	<rect x="14.478" y="26.005" width="2" height="4.002"/>
	<path d="M23.512,8.978c-1.488,0-2.865,0.469-4,1.26c-1.136-0.791-2.513-1.26-4-1.26c-3.866,0-7,3.135-7,7c0,3.867,3.134,7,7,7
		c1.488,0,2.865-0.467,4-1.26c1.135,0.793,2.512,1.26,4,1.26c3.865,0,7-3.133,7-7C30.512,12.112,27.377,8.978,23.512,8.978z
		 M10.512,15.978c0-2.762,2.238-5,5-5c0.913,0,1.756,0.264,2.492,0.688c-0.932,1.189-1.491,2.685-1.491,4.312
		c0,1.629,0.561,3.123,1.491,4.311c-0.735,0.429-1.579,0.689-2.492,0.689C12.75,20.978,10.512,18.739,10.512,15.978z"/>
</g>
</svg>
