<?xml version="1.0" encoding="utf-8"?>
<!-- Generator: Adobe Illustrator 18.1.0, SVG Export Plug-In . SVG Version: 6.00 Build 0)  -->
<!DOCTYPE svg PUBLIC "-//W3C//DTD SVG 1.1//EN" "http://www.w3.org/Graphics/SVG/1.1/DTD/svg11.dtd">
<svg version="1.1" id="Layer_1" xmlns="http://www.w3.org/2000/svg" xmlns:xlink="http://www.w3.org/1999/xlink" x="0px" y="0px"
	 viewBox="0 90 612 612" enable-background="new 0 90 612 612" xml:space="preserve">
<g id="labels">
</g>
<path fill="none" stroke="#231F20" stroke-width="6" stroke-miterlimit="10" d="M303.7,604"/>
<path d="M389.1,611.9"/>
<path d="M545.2,417.6C527.1,366.7,506.8,316,506,279h23c0-49-81.1-114.9-81.1-114.9l-11.6,18.7c23.2,23.2,46.3,65.2,46.3,96.2h0.1
	c0.7,37,22,93.6,40.8,146.4c14.9,41.8,29.1,77.7,29.1,96.5c0,36.2-26.4,56.6-62.6,56.6c-31.9,0-66.1-27.3-66.1-59.3V391.7
	c0-79.7-16-104.2-51-104.2V171.7c0-25.6-15.3-33.7-40.9-33.7c0,0-0.1,0-0.1,0H110.7c-25.6,0-42.7,8.1-42.7,33.7v441.8l0,0
	c-15.9,4-27.7,18.3-27.7,35.5h361.3l-0.1-0.1c-0.1-17.4-12.2-31.9-28.5-35.5V310.7c28,0,28,44.1,28,81.1v127.4
	c0,44.7,42.5,81.1,87.2,81.1c48.5,0,86.5-32.1,86.5-80.6C574.7,496.8,561.4,463.2,545.2,417.6z M328,324H113V184h215V324z"/>
</svg>
