<?xml version="1.0" encoding="utf-8"?>
<!-- Generator: Adobe Illustrator 16.0.0, SVG Export Plug-In . SVG Version: 6.00 Build 0)  -->
<!DOCTYPE svg PUBLIC "-//W3C//DTD SVG 1.1//EN" "http://www.w3.org/Graphics/SVG/1.1/DTD/svg11.dtd">
<svg version="1.1" id="Layer_1" xmlns="http://www.w3.org/2000/svg" xmlns:xlink="http://www.w3.org/1999/xlink" x="0px" y="0px"
	 width="32px" height="32px" viewBox="0 0 32 32" enable-background="new 0 0 32 32" xml:space="preserve">
<g>
	<path d="M16.001,3.717c-7.713,0-13.966,6.254-13.966,13.967c0,4.244,1.899,8.037,4.888,10.6l4.106-4.213l-1.415-1.414L7.558,24.71
		c-1.389-1.665-2.294-3.741-2.501-6.024h2.912v-2.002l-2.918-0.002c0.207-2.285,1.108-4.368,2.496-6.034l2.066,2.065l1.415-1.416
		L8.963,9.231c1.667-1.39,3.75-2.29,6.036-2.496v2.918H17V6.735c2.287,0.206,4.369,1.106,6.037,2.496l-2.065,2.065l1.415,1.416
		l2.066-2.065c1.388,1.666,2.289,3.749,2.496,6.034l-2.918,0.002v2.002h2.911c-0.206,2.283-1.112,4.359-2.501,6.024l-2.056-2.054
		l-1.415,1.414l4.105,4.213c2.988-2.562,4.889-6.355,4.889-10.6C29.967,9.971,23.713,3.717,16.001,3.717z"/>
	<path d="M16.736,16.368l-4.99-2.941l2.94,4.99c0.064,0.111,0.146,0.218,0.239,0.312c0.586,0.586,1.535,0.586,2.122,0
		c0.586-0.586,0.586-1.534,0-2.12C16.953,16.514,16.847,16.432,16.736,16.368z"/>
</g>
</svg>
