<?xml version="1.0" encoding="utf-8"?>
<!-- Generator: Adobe Illustrator 16.0.0, SVG Export Plug-In . SVG Version: 6.00 Build 0)  -->
<!DOCTYPE svg PUBLIC "-//W3C//DTD SVG 1.1//EN" "http://www.w3.org/Graphics/SVG/1.1/DTD/svg11.dtd">
<svg version="1.1" id="Layer_1" xmlns="http://www.w3.org/2000/svg" xmlns:xlink="http://www.w3.org/1999/xlink" x="0px" y="0px"
	 width="32px" height="32px" viewBox="0 0 32 32" enable-background="new 0 0 32 32" xml:space="preserve">
<g>
	<path d="M18.362,17.43l1.73-1.731l-2.121-2.121l-1.732,1.732c-0.628-0.396-1.325-0.691-2.07-0.861v-2.447h-3v2.447
		c-0.746,0.17-1.443,0.465-2.072,0.861l-1.73-1.732l-2.122,2.121l1.731,1.731c-0.395,0.629-0.688,1.324-0.859,2.07H3.67v3.002h2.447
		c0.17,0.746,0.465,1.441,0.858,2.07l-1.73,1.73l2.122,2.123l1.73-1.732c0.629,0.395,1.325,0.689,2.071,0.859V30h3v-2.447
		c0.745-0.17,1.441-0.465,2.07-0.859l1.732,1.732l2.121-2.123l-1.732-1.73c0.396-0.628,0.689-1.324,0.859-2.07h2.449V19.5h-2.447
		C19.052,18.754,18.757,18.059,18.362,17.43z M12.669,23.25c-1.243,0-2.25-1.008-2.25-2.25s1.007-2.25,2.25-2.25
		c1.242,0,2.25,1.008,2.25,2.25S13.911,23.25,12.669,23.25z"/>
	<path d="M25.998,8c0-0.254-0.03-0.5-0.084-0.738l2.416-1.395l-0.999-1.732l-2.418,1.396c-0.361-0.334-0.796-0.592-1.277-0.742V2h-2
		V4.79c-0.482,0.15-0.916,0.408-1.277,0.742l-2.419-1.396l-1,1.732l2.417,1.395C19.302,7.5,19.272,7.747,19.272,8
		c0,0.256,0.031,0.502,0.084,0.74l-2.416,1.395l1,1.732l2.418-1.396c0.361,0.334,0.795,0.592,1.277,0.742V14h2v-2.787
		c0.481-0.15,0.914-0.408,1.276-0.742l2.418,1.396l1-1.732l-2.416-1.395C25.968,8.502,25.998,8.256,25.998,8z M22.636,9.5
		c-0.828,0-1.5-0.67-1.5-1.5c0-0.828,0.672-1.5,1.5-1.5s1.5,0.672,1.5,1.5C24.136,8.831,23.464,9.5,22.636,9.5z"/>
</g>
</svg>
