<?xml version="1.0" encoding="utf-8"?>
<!-- Generator: Adobe Illustrator 16.0.0, SVG Export Plug-In . SVG Version: 6.00 Build 0)  -->
<!DOCTYPE svg PUBLIC "-//W3C//DTD SVG 1.1//EN" "http://www.w3.org/Graphics/SVG/1.1/DTD/svg11.dtd">
<svg version="1.1" id="Layer_1" xmlns="http://www.w3.org/2000/svg" xmlns:xlink="http://www.w3.org/1999/xlink" x="0px" y="0px"
	 width="32px" height="32px" viewBox="0 0 32 32" enable-background="new 0 0 32 32" xml:space="preserve">
<g>
	<rect x="24.5" y="4.5" width="5" height="17"/>
	<rect x="16.5" y="12.5" width="5" height="9"/>
	<rect x="8.5" y="15.5" width="5" height="6"/>
	<polygon points="6.5,5.5 2.5,5.5 2.5,7.5 4.5,7.5 4.5,9.5 2.5,9.5 2.5,11.5 4.5,11.5 4.5,13.5 2.5,13.5 2.5,15.5 4.5,15.5 
		4.5,17.5 2.5,17.5 2.5,19.5 4.5,19.5 4.5,21.5 2.5,21.5 2.5,23.5 4.5,23.5 4.5,25.5 7.5,25.5 7.5,27.5 9.5,27.5 9.5,25.5 
		11.5,25.5 11.5,27.5 13.5,27.5 13.5,25.5 15.5,25.5 15.5,27.5 17.5,27.5 17.5,25.5 19.5,25.5 19.5,27.5 21.5,27.5 21.5,25.5 
		23.5,25.5 23.5,27.5 25.5,27.5 25.5,25.5 27.5,25.5 27.5,27.5 29.5,27.5 29.5,23.5 6.5,23.5 	"/>
</g>
</svg>
