<?xml version="1.0" encoding="utf-8"?>
<!-- Generator: Adobe Illustrator 16.0.0, SVG Export Plug-In . SVG Version: 6.00 Build 0)  -->
<!DOCTYPE svg PUBLIC "-//W3C//DTD SVG 1.1//EN" "http://www.w3.org/Graphics/SVG/1.1/DTD/svg11.dtd">
<svg version="1.1" id="Layer_1" xmlns="http://www.w3.org/2000/svg" xmlns:xlink="http://www.w3.org/1999/xlink" x="0px" y="0px"
	 width="32px" height="32px" viewBox="0 0 32 32" enable-background="new 0 0 32 32" xml:space="preserve">
<g>
	<polygon points="6.5,5 2.5,5 2.5,7 4.5,7 4.5,9 2.5,9 2.5,11 4.5,11 4.5,13 2.5,13 2.5,15 4.5,15 4.5,17 2.5,17 2.5,19 4.5,19 
		4.5,21 2.5,21 2.5,23 4.5,23 4.5,25 7.5,25 7.5,27 9.5,27 9.5,25 11.5,25 11.5,27 13.5,27 13.5,25 15.5,25 15.5,27 17.5,27 
		17.5,25 19.5,25 19.5,27 21.5,27 21.5,25 23.5,25 23.5,27 25.5,27 25.5,25 27.5,25 27.5,27 29.5,27 29.5,23 6.5,23 	"/>
	<polygon points="17.786,13.112 20.247,15.573 21.637,16.962 28.236,10.003 29.5,11.626 29.5,7 25.582,7 27.206,8.619 
		21.661,14.162 19.2,11.699 19.2,11.699 17.786,10.285 9.307,18.762 10.723,20.175 	"/>
</g>
</svg>
