<?xml version="1.0" encoding="utf-8"?>
<!-- Generator: Adobe Illustrator 16.0.0, SVG Export Plug-In . SVG Version: 6.00 Build 0)  -->
<!DOCTYPE svg PUBLIC "-//W3C//DTD SVG 1.1//EN" "http://www.w3.org/Graphics/SVG/1.1/DTD/svg11.dtd">
<svg version="1.1" id="Layer_1" xmlns="http://www.w3.org/2000/svg" xmlns:xlink="http://www.w3.org/1999/xlink" x="0px" y="0px"
	 width="32px" height="32px" viewBox="0 0 32 32" enable-background="new 0 0 32 32" xml:space="preserve">
<g>
	<path d="M20.705,9.501l0.925,0.383c1.473-3.556-0.216-7.632-3.771-9.105l-0.384,0.923C20.516,2.962,21.965,6.46,20.705,9.501z"/>
	<path d="M9.677,9.501c-1.26-3.041,0.189-6.539,3.229-7.799l-0.383-0.923C8.968,2.252,7.279,6.328,8.752,9.884L9.677,9.501z"/>
	<path d="M24.207,17.76c-0.438,0-0.844,0.142-1.174,0.383l-0.002-0.002l-2.203,1.962c-0.358,0.414-1.153,0.807-1.744,0.807
		c-1.084,0-1.969-0.985-1.969-1.963L16.479,6.544c0-0.727-0.59-1.316-1.317-1.316c-0.682,0-1.243,0.518-1.309,1.184l-0.676,8.806
		l-5.509,5.169c-0.883,0.814-1.508,1.83-1.508,3.033c0,0.119,0.017,0.416,0.031,0.531l0.693,5.009
		c0.172,1.275,1.264,2.26,2.587,2.26h6.347c0.992,0,1.748-0.533,2.299-1.365l7.723-11.245C25.479,18.096,24.883,17.76,24.207,17.76z
		"/>
	<path d="M11.514,8.753l0.807-0.332c-0.157-0.376-0.241-0.784-0.241-1.204c0-0.832,0.323-1.613,0.911-2.201
		c0.289-0.289,0.627-0.513,0.992-0.667l-0.328-0.811c-0.466,0.194-0.904,0.479-1.283,0.857C11.193,5.574,10.909,7.304,11.514,8.753z
		"/>
	<path d="M18.305,7.217c0,0.416-0.081,0.82-0.236,1.193l0.807,0.334c0.6-1.446,0.312-3.172-0.862-4.348
		c-0.371-0.371-0.8-0.648-1.255-0.842l-0.325,0.812c0.354,0.154,0.681,0.37,0.96,0.65C17.98,5.604,18.304,6.386,18.305,7.217z"/>
</g>
</svg>
