<?xml version="1.0" encoding="utf-8"?>
<!-- Generator: Adobe Illustrator 16.0.0, SVG Export Plug-In . SVG Version: 6.00 Build 0)  -->
<!DOCTYPE svg PUBLIC "-//W3C//DTD SVG 1.1//EN" "http://www.w3.org/Graphics/SVG/1.1/DTD/svg11.dtd">
<svg version="1.1" id="Layer_1" xmlns="http://www.w3.org/2000/svg" xmlns:xlink="http://www.w3.org/1999/xlink" x="0px" y="0px"
	 width="32px" height="32px" viewBox="0 0 32 32" enable-background="new 0 0 32 32" xml:space="preserve">
<path d="M28,20.021v-5H17V12h3V4h-8v8h3v3.021H4v5H1V28h8v-7.979H6v-3h9v3h-3V28h8v-7.979h-3v-3h9v3h-3V28h8v-7.979H28z M7,22.006v4
	H3v-4H7z M18,22v4h-4v-4H18z M14,10.021v-4h4v4H14z M29,26h-4v-4h4V26z"/>
</svg>
