<?xml version="1.0" encoding="utf-8"?>
<!-- Generator: Adobe Illustrator 16.0.0, SVG Export Plug-In . SVG Version: 6.00 Build 0)  -->
<!DOCTYPE svg PUBLIC "-//W3C//DTD SVG 1.1//EN" "http://www.w3.org/Graphics/SVG/1.1/DTD/svg11.dtd">
<svg version="1.1" id="Layer_1" xmlns="http://www.w3.org/2000/svg" xmlns:xlink="http://www.w3.org/1999/xlink" x="0px" y="0px"
	 width="32px" height="32px" viewBox="0 0 32 32" enable-background="new 0 0 32 32" xml:space="preserve">
<g>
	<rect x="11.979" y="24.498" width="8" height="2"/>
	<rect x="13.979" y="27.498" width="4" height="2"/>
	<path d="M16,2.502c-4.972,0-9,4.029-9,9c0,2.484,1.007,4.735,2.636,6.364l1.261,1.279c0.696,0.723,1.124,1.707,1.124,2.791v1.561
		h7.959v-1.561c0-1.084,0.429-2.068,1.124-2.791l1.261-1.279C23.994,16.238,25,13.988,25,11.502C25,6.533,20.97,2.502,16,2.502z
		 M20.227,15.761l-1.284,1.303c-0.928,0.964-1.55,2.15-1.815,3.435h-2.254c-0.269-1.285-0.896-2.478-1.84-3.457l-1.276-1.295
		C10.624,14.614,10,13.107,10,11.503c0-3.309,2.69-6,6-6c3.309,0,6,2.691,6,6C22,13.106,21.375,14.613,20.227,15.761z"/>
</g>
</svg>
