<?xml version="1.0" encoding="utf-8"?>
<!-- Generator: Adobe Illustrator 16.0.0, SVG Export Plug-In . SVG Version: 6.00 Build 0)  -->
<!DOCTYPE svg PUBLIC "-//W3C//DTD SVG 1.1//EN" "http://www.w3.org/Graphics/SVG/1.1/DTD/svg11.dtd">
<svg version="1.1" id="Layer_1" xmlns="http://www.w3.org/2000/svg" xmlns:xlink="http://www.w3.org/1999/xlink" x="0px" y="0px"
	 width="32px" height="32px" viewBox="0 0 32 32" enable-background="new 0 0 32 32" xml:space="preserve">
<g>
	<rect x="11.881" y="25.328" width="8" height="2"/>
	<rect x="13.881" y="28.328" width="4" height="2"/>
	<path d="M21.89,6.869L9.333,10.232c-0.8,0.215-1.275,1.037-1.061,1.837c0.214,0.801,1.037,1.275,1.837,1.061l12.556-3.364
		c0.801-0.215,1.275-1.037,1.061-1.837C23.513,7.128,22.688,6.654,21.89,6.869z"/>
	<path d="M10.109,7.985l12.556-3.364c0.801-0.215,1.275-1.037,1.061-1.837c-0.213-0.801-1.037-1.275-1.836-1.061L9.333,5.086
		c-0.8,0.215-1.275,1.037-1.061,1.837C8.486,7.725,9.309,8.2,10.109,7.985z"/>
	<path d="M21.89,11.982L9.333,15.348c-0.8,0.215-1.275,1.037-1.061,1.835c0.069,0.262,0.208,0.482,0.385,0.662l3.225,2.926v3.558h8
		v-3.755l2.141-0.575c0.631-0.168,1.009-0.817,0.845-1.451c-0.168-0.636-0.813-1.015-1.447-0.847l-2.651,0.716
		c-0.552,0.146-0.902,0.66-0.875,1.209v2.703h-4.021l-0.004-2.392c0.012-0.334-0.104-0.666-0.371-0.907l-1.445-1.306l10.615-2.844
		c0.801-0.215,1.275-1.037,1.061-1.838C23.513,12.243,22.688,11.768,21.89,11.982z"/>
</g>
</svg>
