<?xml version="1.0" encoding="utf-8"?>
<!-- Generator: Adobe Illustrator 16.0.0, SVG Export Plug-In . SVG Version: 6.00 Build 0)  -->
<!DOCTYPE svg PUBLIC "-//W3C//DTD SVG 1.1//EN" "http://www.w3.org/Graphics/SVG/1.1/DTD/svg11.dtd">
<svg version="1.1" id="Layer_1" xmlns="http://www.w3.org/2000/svg" xmlns:xlink="http://www.w3.org/1999/xlink" x="0px" y="0px"
	 width="32px" height="32px" viewBox="0 0 32 32" enable-background="new 0 0 32 32" xml:space="preserve">
<path d="M25.361,13.017h-1.314v-2.02c0-4.414-3.58-7.998-8.003-7.998c-4.416,0-8,3.584-8,7.998v2.02H6.649
	c-0.91,0-1.641,0.746-1.641,1.644v12.71c0,0.896,0.73,1.631,1.641,1.631h18.712c0.896,0,1.631-0.733,1.631-1.631V14.66
	C26.992,13.763,26.258,13.017,25.361,13.017z M11.048,10.979c0-2.756,2.236-4.985,4.996-4.985c2.756,0,4.995,2.229,4.995,4.985
	v2.037h-9.991V10.979z M17.984,25.03h-3.969l0.735-4.098c-0.561-0.396-0.947-1.018-0.947-1.768c0-1.211,0.982-2.201,2.197-2.201
	c1.223,0,2.203,0.99,2.203,2.201c0,0.75-0.391,1.371-0.955,1.768L17.984,25.03z"/>
</svg>
