<?xml version="1.0" encoding="utf-8"?>
<!-- Generator: Adobe Illustrator 18.1.0, SVG Export Plug-In . SVG Version: 6.00 Build 0)  -->
<!DOCTYPE svg PUBLIC "-//W3C//DTD SVG 1.1//EN" "http://www.w3.org/Graphics/SVG/1.1/DTD/svg11.dtd">
<svg version="1.1" id="Layer_1" xmlns="http://www.w3.org/2000/svg" xmlns:xlink="http://www.w3.org/1999/xlink" x="0px" y="0px"
	 width="32px" height="32px" viewBox="0 0 32 32" enable-background="new 0 0 32 32" xml:space="preserve">
<g id="labels">
</g>
<path d="M16,1c-6.1,0-11,5-11,11.1c0,1.5,0.3,3,0.9,4.3C7.5,20.4,16.1,31,16.1,31s8.5-10.6,10.1-14.6c0.6-1.3,0.9-2.8,0.9-4.3
	C27,6,22.1,1,16,1z M21,16.9l-3.1,1.8L16,15.2l-1.8,3.5l-3.2-1.8l2.1-3.4l-4,0.2l0-3.6l4,0.2L11,6.9l3.2-1.9L16,8.6l1.8-3.5l3.1,1.8
	l-2.1,3.3l4-0.2l0,3.6l-4-0.2L21,16.9z"/>
</svg>
