<?xml version="1.0" encoding="utf-8"?>
<!-- Generator: Adobe Illustrator 16.0.0, SVG Export Plug-In . SVG Version: 6.00 Build 0)  -->
<!DOCTYPE svg PUBLIC "-//W3C//DTD SVG 1.1//EN" "http://www.w3.org/Graphics/SVG/1.1/DTD/svg11.dtd">
<svg version="1.1" id="Layer_1" xmlns="http://www.w3.org/2000/svg" xmlns:xlink="http://www.w3.org/1999/xlink" x="0px" y="0px"
	 width="32px" height="32px" viewBox="0 0 32 32" enable-background="new 0 0 32 32" xml:space="preserve">
<g>
	<path d="M2,12.929v2c0,1.104,0.898,2.061,2.003,2.061H5v-6H4.002C2.897,10.989,2,11.825,2,12.929z"/>
	<path d="M28,4.011v1c-2.357,2.514-5.482,4.298-9,4.979c0-0.553-0.447-1-1-1H7c-0.553,0-1,0.447-1,1v8.005c0,0.553,0.447,1,1,1h1.02
		l2.983,8.995h7l-2.983-8.995H18c0.553,0,1-0.447,1-1c3.519,0.683,6.643,2.504,9,5.019v1h2v-20L28,4.011L28,4.011z M17,12.989H8v-2
		h9V12.989z"/>
</g>
</svg>
