<?xml version="1.0" encoding="utf-8"?>
<!-- Generator: Adobe Illustrator 16.0.0, SVG Export Plug-In . SVG Version: 6.00 Build 0)  -->
<!DOCTYPE svg PUBLIC "-//W3C//DTD SVG 1.1//EN" "http://www.w3.org/Graphics/SVG/1.1/DTD/svg11.dtd">
<svg version="1.1" id="Layer_1" xmlns="http://www.w3.org/2000/svg" xmlns:xlink="http://www.w3.org/1999/xlink" x="0px" y="0px"
	 width="32px" height="32px" viewBox="0 0 32 32" enable-background="new 0 0 32 32" xml:space="preserve">
<g>
	<path d="M28.994,8.499h-2.988V3.48c0-1.656-1.344-3-3-3h-20c-1.656,0-3,1.344-3,3v16.023c0,1.655,1.344,3,3,3h3v5.405
		c0,0.879,0.715,1.595,1.595,1.595c0.451,0,0.857-0.187,1.146-0.484h0.002l2.849-2.856c0.417,0.225,0.89,0.356,1.397,0.356h6.063
		l4.569,4.582h0.002c0.248,0.259,0.6,0.418,0.988,0.418c0.76,0,1.377-0.616,1.377-1.375V26.52h3c1.655,0,3-1.342,3-3V11.499
		C31.994,9.841,30.652,8.499,28.994,8.499z M29.016,12.468v2h-3v-2H29.016z M29.016,16.468v2h-3v-2H29.016z M3.016,19.468v-16h20v16
		h-9.023l-4.977,5.037v-5.037H3.016z M29.016,22.468h-5.797c1.212,0,2.217-1,2.605-2h3.191V22.468z"/>
	<rect x="6.016" y="6.468" width="14" height="2"/>
	<rect x="6.016" y="10.468" width="14" height="2"/>
	<rect x="6.016" y="14.468" width="7" height="2"/>
</g>
</svg>
