<?xml version="1.0" encoding="utf-8"?>
<!-- Generator: Adobe Illustrator 16.0.0, SVG Export Plug-In . SVG Version: 6.00 Build 0)  -->
<!DOCTYPE svg PUBLIC "-//W3C//DTD SVG 1.1//EN" "http://www.w3.org/Graphics/SVG/1.1/DTD/svg11.dtd">
<svg version="1.1" id="Layer_1" xmlns="http://www.w3.org/2000/svg" xmlns:xlink="http://www.w3.org/1999/xlink" x="0px" y="0px"
	 width="32px" height="32px" viewBox="0 0 32 32" enable-background="new 0 0 32 32" xml:space="preserve">
<g>
	<rect x="20" y="21.001" width="6" height="2"/>
	<rect x="20" y="17.001" width="6" height="2"/>
	<rect x="20" y="9.001" width="6" height="2"/>
	<rect x="20" y="13.001" width="6" height="2"/>
	<rect x="11" y="21.001" width="7" height="2"/>
	<rect x="11" y="9.001" width="7" height="10"/>
	<path d="M29.035,3.001L7.964,2.999C6.312,2.999,5,4.347,5,6.001v2H0v15.314c0,3.393,1.595,5.686,5.404,5.686h23.631
		c1.652,0,2.965-1.34,2.965-2.994V6.003C32,4.348,30.688,3.001,29.035,3.001z M5,25.001H3v-2h2V25.001z M5,21.001H3v-2h2V21.001z
		 M5,17.001H3v-2h2V17.001z M5,13.001H3v-2h2V13.001z M29,26.001H8v-20h21V26.001z"/>
</g>
</svg>
