<?xml version="1.0" encoding="utf-8"?>
<!-- Generator: Adobe Illustrator 16.0.0, SVG Export Plug-In . SVG Version: 6.00 Build 0)  -->
<!DOCTYPE svg PUBLIC "-//W3C//DTD SVG 1.1//EN" "http://www.w3.org/Graphics/SVG/1.1/DTD/svg11.dtd">
<svg version="1.1" id="Layer_1" xmlns="http://www.w3.org/2000/svg" xmlns:xlink="http://www.w3.org/1999/xlink" x="0px" y="0px"
	 width="32px" height="32px" viewBox="0 0 32 32" enable-background="new 0 0 32 32" xml:space="preserve">
<g>
	<path d="M25.567,16.813H18.55c-0.307,0-0.557,0.25-0.557,0.557c0,0.156,0.065,0.297,0.17,0.397l4.94,4.941h0.004
		c0.103,0.109,0.244,0.178,0.404,0.178c0.192,0,0.362-0.098,0.463-0.246c1.215-1.409,1.996-3.2,2.137-5.172
		c0.009-0.032,0.013-0.065,0.013-0.1C26.124,17.063,25.876,16.813,25.567,16.813z"/>
	<path d="M16.589,15.64h7.801v-0.002l0.002,0.002c0.307,0,0.555-0.25,0.555-0.56l0,0c-0.275-4.487-3.867-8.08-8.357-8.354l0,0
		c-0.307,0.002-0.554,0.25-0.554,0.557v7.799C16.035,15.39,16.282,15.64,16.589,15.64z"/>
	<path d="M20.718,22.256h-0.002l-0.002-0.002l-5.75-5.753v-0.002c-0.098-0.1-0.156-0.235-0.156-0.387h-0.002V7.985l0,0
		c0-0.307-0.248-0.555-0.555-0.555l0,0c-4.674,0.285-8.375,4.168-8.375,8.911c0,4.933,3.998,8.933,8.93,8.933
		c2.25,0,4.305-0.832,5.875-2.205v-0.002c0.121-0.103,0.197-0.252,0.197-0.422C20.878,22.495,20.817,22.356,20.718,22.256
		L20.718,22.256z"/>
</g>
</svg>
