<?xml version="1.0" encoding="utf-8"?>
<!-- Generator: Adobe Illustrator 16.0.0, SVG Export Plug-In . SVG Version: 6.00 Build 0)  -->
<!DOCTYPE svg PUBLIC "-//W3C//DTD SVG 1.1//EN" "http://www.w3.org/Graphics/SVG/1.1/DTD/svg11.dtd">
<svg version="1.1" id="Layer_1" xmlns="http://www.w3.org/2000/svg" xmlns:xlink="http://www.w3.org/1999/xlink" x="0px" y="0px"
	 width="32px" height="32px" viewBox="0 0 32 32" enable-background="new 0 0 32 32" xml:space="preserve">
<g>
	<polygon points="0.961,22.65 0.961,22.646 0.961,22.645 	"/>
	<path d="M15.976,4.924c1.107,0,2.005-0.897,2.005-2.006c0-0.553-0.226-1.051-0.586-1.412h0.002l-1.421-1.422L14.564,1.5
		c-0.367,0.361-0.595,0.863-0.593,1.42C13.97,4.027,14.869,4.924,15.976,4.924z"/>
	<path d="M2.98,9.939c1.106,0,2.004-0.898,2.004-2.006c0-0.553-0.226-1.051-0.584-1.412l0,0L2.98,5.099L1.568,6.515
		c-0.365,0.361-0.593,0.863-0.593,1.42C0.976,9.043,1.875,9.939,2.98,9.939z"/>
	<path d="M29.035,9.939c1.106,0,2.007-0.896,2.004-2.004c0.003-0.557-0.225-1.059-0.592-1.42l-1.412-1.416l-1.42,1.422h0.002
		c-0.36,0.361-0.586,0.859-0.586,1.412C27.031,9.041,27.927,9.939,29.035,9.939z"/>
	<path d="M16.986,10.014V8.941c0-0.557-0.451-1.008-1.008-1.008c-0.558,0-1.011,0.451-1.011,1.008v1.072
		C7.585,10.507,1.677,16.349,1.083,23.704l-0.011,0.022c1.363-1.103,3.096-1.765,4.981-1.765c1.867,0,3.578,0.648,4.935,1.726
		c1.117-0.902,2.485-1.502,3.981-1.691v6.906c0,0.557-0.45,1.008-1.008,1.008c-0.555,0-1.006-0.451-1.006-1.008
		c0-0.555-0.449-1.004-1.002-1.004c-0.557,0-1.004,0.449-1.004,1.004c0,1.666,1.348,3.014,3.012,3.014
		c1.666,0,3.017-1.348,3.017-3.014v-6.906c1.493,0.191,2.858,0.791,3.977,1.691c1.354-1.076,3.066-1.726,4.933-1.726
		c1.889,0,3.621,0.662,4.983,1.765C30.296,16.35,24.384,10.506,16.986,10.014z M25.886,19.979c-1.795,0-3.475,0.479-4.926,1.315
		c-1.465-0.858-3.168-1.354-4.99-1.354c-1.819,0-3.522,0.496-4.989,1.354c-1.449-0.836-3.132-1.315-4.927-1.315
		c-0.739,0-1.457,0.088-2.149,0.244c1.883-4.834,6.576-8.263,12.074-8.263c5.502,0,10.19,3.43,12.071,8.265
		C27.354,20.068,26.634,19.979,25.886,19.979z"/>
</g>
</svg>
