<?xml version="1.0" encoding="utf-8"?>
<!-- Generator: Adobe Illustrator 16.0.0, SVG Export Plug-In . SVG Version: 6.00 Build 0)  -->
<!DOCTYPE svg PUBLIC "-//W3C//DTD SVG 1.1//EN" "http://www.w3.org/Graphics/SVG/1.1/DTD/svg11.dtd">
<svg version="1.1" id="Layer_1" xmlns="http://www.w3.org/2000/svg" xmlns:xlink="http://www.w3.org/1999/xlink" x="0px" y="0px"
	 width="32px" height="32px" viewBox="0 0 32 32" enable-background="new 0 0 32 32" xml:space="preserve">
<g>
	<path d="M11.482,9.41c3.643-2.494,8.624-1.592,11.114,2.054c0.949,1.383,1.4,2.492,1.398,4.492h3.998
		c0.002-2-0.674-4.678-2.094-6.752c-3.742-5.465-11.21-6.853-16.679-3.111L7.543,3.649l-3.176,8.24l8.824,0.016L11.482,9.41z"/>
	<path d="M20.518,22.604c-3.642,2.492-8.622,1.537-11.114-2.107c-0.948-1.381-1.399-2.541-1.399-4.541H4.007
		c-0.002,2,0.676,4.727,2.094,6.803c3.744,5.463,11.211,6.879,16.68,3.137l1.677,2.455l3.174-8.231l-8.824-0.013L20.518,22.604z"/>
</g>
</svg>
