<?xml version="1.0" encoding="utf-8"?>
<!-- Generator: Adobe Illustrator 16.0.0, SVG Export Plug-In . SVG Version: 6.00 Build 0)  -->
<!DOCTYPE svg PUBLIC "-//W3C//DTD SVG 1.1//EN" "http://www.w3.org/Graphics/SVG/1.1/DTD/svg11.dtd">
<svg version="1.1" id="Layer_1" xmlns="http://www.w3.org/2000/svg" xmlns:xlink="http://www.w3.org/1999/xlink" x="0px" y="0px"
	 width="32px" height="32px" viewBox="0 0 32 32" enable-background="new 0 0 32 32" xml:space="preserve">
<path d="M14.941,23.415l-2.12-2.119l1.414-1.416l3.534,3.537c0.988,0.986,2.363,1.347,3.637,1.086
	c-0.98,1.812-1.215,3.92-0.695,5.873l4.131-4.131l1.604,1.604c-0.175,0.665-0.011,1.401,0.511,1.924
	c0.781,0.781,2.049,0.781,2.829,0c0.779-0.778,0.78-2.047,0-2.828c-0.522-0.521-1.26-0.687-1.926-0.51l-1.604-1.604l4.242-4.242
	c-1.986-0.529-4.137-0.282-5.97,0.742c0.235-1.254-0.13-2.601-1.101-3.57l-3.535-3.535l1.408-1.408l2.119,2.119l7.065-7.063
	L24.123,1.51l-7.064,7.062l2.121,2.121l-1.41,1.409l-4.249-4.25c-0.391-0.391-1.023-0.391-1.413,0l-4.243,4.242
	c-0.391,0.391-0.392,1.022,0,1.415l4.25,4.249L10.7,19.173l-2.122-2.121l-7.076,7.076l6.363,6.362L14.941,23.415z M24.12,4.343
	l3.536,3.536l-1.414,1.414l-3.536-3.536L24.12,4.343z M19.885,8.581l1.414-1.414l3.534,3.536l-1.413,1.413L19.885,8.581z
	 M11.412,11.39l1.409-1.408l9.192,9.191l-1.41,1.408L11.412,11.39z M8.575,19.888l3.536,3.535l-1.415,1.416l-3.535-3.536
	L8.575,19.888z M5.741,22.722l3.536,3.535l-1.415,1.414l-3.535-3.534L5.741,22.722z"/>
</svg>
