<?xml version="1.0" encoding="utf-8"?>
<!-- Generator: Adobe Illustrator 18.1.0, SVG Export Plug-In . SVG Version: 6.00 Build 0)  -->
<!DOCTYPE svg PUBLIC "-//W3C//DTD SVG 1.1//EN" "http://www.w3.org/Graphics/SVG/1.1/DTD/svg11.dtd">
<svg version="1.1" id="Icons" xmlns="http://www.w3.org/2000/svg" xmlns:xlink="http://www.w3.org/1999/xlink" x="0px" y="0px"
	 viewBox="0 0 160 160" enable-background="new 0 0 160 160" xml:space="preserve">
<path d="M152,135.5l-38.2-38.2c6.4-9.3,10.2-20.6,10.2-32.8c0-32-26-58.1-58.1-58.1S8,32.5,8,64.5s26,58.1,58.1,58.1
	c10.6,0,20.6-2.9,29.2-7.9l38.8,38.8L152,135.5z M19.7,64.5C19.7,39,40.5,18.2,66,18.2c25.6,0,46.3,20.8,46.3,46.4
	S91.6,110.9,66,110.9C40.5,110.9,19.7,90.1,19.7,64.5z"/>
</svg>
