<?xml version="1.0" encoding="utf-8"?>
<!-- Generator: Adobe Illustrator 18.1.0, SVG Export Plug-In . SVG Version: 6.00 Build 0)  -->
<!DOCTYPE svg PUBLIC "-//W3C//DTD SVG 1.1//EN" "http://www.w3.org/Graphics/SVG/1.1/DTD/svg11.dtd">
<svg version="1.1" id="Layer_1" xmlns="http://www.w3.org/2000/svg" xmlns:xlink="http://www.w3.org/1999/xlink" x="0px" y="0px"
	 viewBox="0 0 32 32" enable-background="new 0 0 32 32" xml:space="preserve">
<path d="M22.2,19.7L12.1,32H0.8v-3.5c0-2.4,0.3-3.8,0.8-4.3C1.7,23.7,2,23.3,2.5,23c0.5-0.3,1-0.7,1.7-1.1c0.6-0.3,1.3-0.6,2-1
	c0.7-0.4,1.5-0.7,2.2-0.9c1.5-0.7,2.4-1.2,2.9-1.4c0.5-0.2,0.7-0.4,0.7-0.5v-2.7c0-0.1-0.2-0.4-0.5-0.8c-0.4-0.4-0.7-1.3-0.9-2.8
	c-0.1,0.1-0.2,0.1-0.2,0.1c0,0,0,0,0,0.1c-0.3-0.1-0.5-0.3-0.8-0.6c-0.3-0.3-0.4-0.7-0.4-1.2c0-0.3,0-0.7,0.1-1.3
	c0-0.6,0.3-0.9,0.6-0.8V8V7.9C9.7,7.3,9.6,6.7,9.6,6.2c0-0.6,0-1,0-1.3c0-0.6,0.2-1.2,0.5-1.7c0.3-0.5,0.7-1,1.2-1.6
	c0.6-0.4,1.2-0.7,1.9-1c0.7-0.3,1.5-0.4,2.4-0.3c0.9-0.1,1.7,0,2.5,0.3c0.7,0.3,1.4,0.6,1.9,1c0.5,0.5,0.9,1,1.2,1.6
	c0.3,0.5,0.5,1.1,0.5,1.6v1.3v1.9V8v0.1V8V7.9c0.4,0.1,0.6,0.4,0.6,1c0.1,0.6,0.1,1,0.1,1.4c0,0.2-0.1,0.5-0.3,1
	c-0.2,0.5-0.5,0.7-0.9,0.6c-0.1,0.1-0.2,0.1-0.2,0.1V12c-0.2,1.3-0.4,2.2-0.9,2.8c-0.4,0.6-0.6,0.8-0.6,0.7v3.1c0-0.1,0.3,0,0.8,0.3
	C20.7,19.1,21.3,19.4,22.2,19.7z M30.3,24c-0.3-0.3-0.6-0.6-1.1-0.9c-0.5-0.4-1-0.6-1.6-0.8c-0.1-0.1-0.2-0.1-0.4-0.2L19,32h11.6
	h0.3v-3.5C30.8,26.2,30.6,24.7,30.3,24z M13.2,32h4.5L31,16l-2.6-2.3L13.2,32z"/>
</svg>
