<?xml version="1.0" encoding="utf-8"?>
<!-- Generator: Adobe Illustrator 18.1.0, SVG Export Plug-In . SVG Version: 6.00 Build 0)  -->
<!DOCTYPE svg PUBLIC "-//W3C//DTD SVG 1.1//EN" "http://www.w3.org/Graphics/SVG/1.1/DTD/svg11.dtd">
<svg version="1.1" id="Layer_1" xmlns="http://www.w3.org/2000/svg" xmlns:xlink="http://www.w3.org/1999/xlink" x="0px" y="0px"
	 width="32px" height="32px" viewBox="0 0 32 32" enable-background="new 0 0 32 32" xml:space="preserve">
<g>
	<path d="M20.1,13.9l1.1-1.1c1.1-1.1,2.6-1.8,4.2-1.8l0,0v3l5-5l-5-5v3l0,0c-2.8,0-5.3,1.1-7.1,2.9l0,0l0,0L17.3,11L20.1,13.9z"/>
	<path d="M30.5,23l-5-5v3l0,0v0c-1.7,0-3.2-0.7-4.2-1.8L12,9.9h0l0,0C10.1,8.1,7.6,7,4.9,7H3.5v4h1.4c1.7,0,3.2,0.7,4.2,1.8l3.2,3.2
		l-3.2,3.2C8,20.3,6.5,21,4.9,21H3.5v4h1.4c2.8,0,5.3-1.1,7.1-2.9l0,0l3.2-3.2l3.2,3.2v0l0,0c1.8,1.8,4.3,2.9,7.1,2.9v0l0,0v3
		L30.5,23z"/>
</g>
</svg>
