<?xml version="1.0" encoding="utf-8"?>
<!-- Generator: Adobe Illustrator 18.1.0, SVG Export Plug-In . SVG Version: 6.00 Build 0)  -->
<!DOCTYPE svg PUBLIC "-//W3C//DTD SVG 1.1//EN" "http://www.w3.org/Graphics/SVG/1.1/DTD/svg11.dtd">
<svg version="1.1" id="Layer_1" xmlns="http://www.w3.org/2000/svg" xmlns:xlink="http://www.w3.org/1999/xlink" x="0px" y="0px"
	 viewBox="0 0 32 32" enable-background="new 0 0 32 32" xml:space="preserve">
<path d="M27,8.4L25.6,7c-0.4-0.4-0.4-1,0-1.4l0,0c0.4-0.4,1-0.4,1.4,0L28.4,7c0.4,0.4,0.4,1,0,1.4l0,0C28,8.8,27.4,8.8,27,8.4z
	 M16,11v2c2.8,0,5,2.2,5,5s-2.2,5-5,5c-0.9,0-1.9-0.3-2.7-0.8l1.5-1.6L8.4,19l1.8,6.3l1.6-1.7c1.2,0.9,2.7,1.4,4.2,1.4
	c3.9,0,7-3.1,7-7S19.9,11,16,11z M17,5V4h1c0.6,0,1-0.4,1-1V1c0-0.6-0.4-1-1-1h-4c-0.6,0-1,0.4-1,1v2c0,0.6,0.4,1,1,1h1v1
	C8.3,5.5,3,11.1,3,18c0,7.2,5.8,13,13,13s13-5.8,13-13C29,11.1,23.7,5.5,17,5z M16,29C9.9,29,5,24.1,5,18S9.9,7,16,7s11,4.9,11,11
	S22.1,29,16,29z"/>
</svg>
