<?xml version="1.0" encoding="utf-8"?>
<!-- Generator: Adobe Illustrator 18.1.0, SVG Export Plug-In . SVG Version: 6.00 Build 0)  -->
<!DOCTYPE svg PUBLIC "-//W3C//DTD SVG 1.1//EN" "http://www.w3.org/Graphics/SVG/1.1/DTD/svg11.dtd">
<svg version="1.1" id="Layer_1" xmlns="http://www.w3.org/2000/svg" xmlns:xlink="http://www.w3.org/1999/xlink" x="0px" y="0px"
	 width="32px" height="32px" viewBox="0 0 32 32" enable-background="new 0 0 32 32" xml:space="preserve">
<g>
	<path d="M23.2,6.1C17.7,2.4,10.3,3.8,6.6,9.3c-1.4,2.1-2.1,4.4-2.1,6.7h0l-2.9,0l5,7.2l4.9-7.2h-3c0-1.5,0.4-3.1,1.4-4.5
		c2.5-3.6,7.4-4.6,11.1-2.1c3.6,2.5,4.6,7.4,2.1,11.1C21.5,22.8,19,24,16.4,24v4c3.8,0,7.6-1.8,9.9-5.2C30,17.3,28.6,9.9,23.2,6.1z"
		/>
	<polygon points="15.4,11.1 15.4,16.8 18,20.4 19.6,19.3 17.4,16.1 17.4,11.1 	"/>
</g>
</svg>
