<?xml version="1.0" encoding="utf-8"?>
<!-- Generator: Adobe Illustrator 18.1.0, SVG Export Plug-In . SVG Version: 6.00 Build 0)  -->
<!DOCTYPE svg PUBLIC "-//W3C//DTD SVG 1.1//EN" "http://www.w3.org/Graphics/SVG/1.1/DTD/svg11.dtd">
<svg version="1.1" id="Layer_1" xmlns="http://www.w3.org/2000/svg" xmlns:xlink="http://www.w3.org/1999/xlink" x="0px" y="0px"
	 width="32px" height="32px" viewBox="0 0 32 32" enable-background="new 0 0 32 32" xml:space="preserve">
<g>
	<path d="M8.8,6.1c5.4-3.7,12.9-2.3,16.6,3.1c1.4,2.1,2.1,4.4,2.1,6.7h0l2.9,0l-5,7.2L20.5,16h3c0-1.5-0.4-3.1-1.4-4.5
		c-2.5-3.6-7.4-4.6-11.1-2.1C7.4,11.9,6.5,16.8,9,20.5c1.6,2.3,4.1,3.5,6.6,3.5v4c-3.8,0-7.6-1.8-9.9-5.2C2,17.3,3.4,9.9,8.8,6.1z"
		/>
	<polygon points="14.4,11.1 14.4,16.8 16.9,20.4 18.6,19.3 16.4,16.1 16.4,11.1 	"/>
</g>
</svg>
