<?xml version="1.0" encoding="utf-8"?>
<!-- Generator: Adobe Illustrator 16.0.0, SVG Export Plug-In . SVG Version: 6.00 Build 0)  -->
<!DOCTYPE svg PUBLIC "-//W3C//DTD SVG 1.1//EN" "http://www.w3.org/Graphics/SVG/1.1/DTD/svg11.dtd">
<svg version="1.1" id="Layer_1" xmlns="http://www.w3.org/2000/svg" xmlns:xlink="http://www.w3.org/1999/xlink" x="0px" y="0px"
	 width="32px" height="32px" viewBox="0 0 32 32" enable-background="new 0 0 32 32" xml:space="preserve">
<path d="M28.693,23.533c-1.039-2.443-5.122-4.623-8.54-5.588c-0.369-0.145-0.631-0.508-0.631-0.932c0-0.24,0.086-0.461,0.229-0.637
	c1.264-1.307,2.521-3.369,2.521-5.994c0-3.461-2.045-6.816-6.27-6.816c-4.228,0-6.273,3.355-6.273,6.816
	c0,2.625,1.259,4.688,2.521,5.994c0.144,0.176,0.229,0.396,0.229,0.637c0,0.424-0.261,0.787-0.632,0.932
	c-3.419,0.965-7.499,3.145-8.539,5.588c-0.186,0.432-0.293,0.904-0.293,1.404c0,1.768,1.292,3.219,2.981,3.496h20.007
	c1.689-0.277,2.98-1.729,2.98-3.496C28.986,24.438,28.879,23.965,28.693,23.533z"/>
</svg>
