<?xml version="1.0" encoding="utf-8"?>
<!-- Generator: Adobe Illustrator 16.0.0, SVG Export Plug-In . SVG Version: 6.00 Build 0)  -->
<!DOCTYPE svg PUBLIC "-//W3C//DTD SVG 1.1//EN" "http://www.w3.org/Graphics/SVG/1.1/DTD/svg11.dtd">
<svg version="1.1" id="Layer_1" xmlns="http://www.w3.org/2000/svg" xmlns:xlink="http://www.w3.org/1999/xlink" x="0px" y="0px"
	 width="32px" height="32px" viewBox="0 0 32 32" enable-background="new 0 0 32 32" xml:space="preserve">
<g>
	<g>
		<path d="M3.861,10.973h20v5h3V6.991c0-1.653-1.162-3.018-2.817-3.018H4.025c-1.654,0-3.164,1.365-3.164,3.018v17.995
			c0,1.652,1.51,2.986,3.164,2.986h13.836v-3h-14V10.973z M15.861,6.973h8v2h-8V6.973z M11.861,6.973h2v2h-2V6.973z M7.861,6.973h2
			v2h-2V6.973z M3.861,6.973h2v2h-2V6.973z"/>
	</g>
	<path d="M20.8,27.988c0.107,0.029,0.22,0.041,0.328,0.037h8.792v-0.002c0.422,0.029,0.842-0.176,1.068-0.564
		c0.215-0.375,0.195-0.82-0.02-1.166l-4.396-7.61H26.57c-0.055-0.11-0.125-0.217-0.219-0.312c-0.443-0.442-1.164-0.442-1.607,0
		c-0.08,0.08-0.145,0.17-0.195,0.267l-4.396,7.612v0.004c-0.067,0.102-0.123,0.219-0.155,0.344
		C19.835,27.203,20.195,27.826,20.8,27.988z M24.547,20.026h2.006v4.004h-2.006V20.026z M24.547,25.029h2.006v2.006h-2.006V25.029z"
		/>
</g>
</svg>
