<?xml version="1.0" encoding="utf-8"?>
<!-- Generator: Adobe Illustrator 16.0.0, SVG Export Plug-In . SVG Version: 6.00 Build 0)  -->
<!DOCTYPE svg PUBLIC "-//W3C//DTD SVG 1.1//EN" "http://www.w3.org/Graphics/SVG/1.1/DTD/svg11.dtd">
<svg version="1.1" id="Layer_1" xmlns="http://www.w3.org/2000/svg" xmlns:xlink="http://www.w3.org/1999/xlink" x="0px" y="0px"
	 width="32px" height="32px" viewBox="0 0 32 32" enable-background="new 0 0 32 32" xml:space="preserve">
<g>
	<path d="M26.075,4H6.055C4.401,4,3,5.388,3,7.04v17.996C3,26.688,4.401,28,6.056,28h20.02C27.729,28,29,26.688,29,25.036V7.04
		C29,5.388,27.729,4,26.075,4z M18,7h8v2h-8V7z M14,7h2v2h-2V7z M10,7h2v2h-2V7z M6,7h2v2H6V7z M26,25H6V11h20V25z"/>
	<path d="M8.884,22h6.583c0.555,0,0.981-0.547,0.981-1.111c0-0.162-0.036-0.311-0.099-0.449c-0.338-0.782-1.686-1.479-2.81-1.787
		c-0.122-0.049-0.21-0.161-0.21-0.301c0-0.078,0.031-0.146,0.078-0.201c0.416-0.418,0.83-1.082,0.83-1.92
		c0-1.111-0.675-2.184-2.065-2.184c-1.388,0-2.062,1.072-2.062,2.184c0,0.838,0.414,1.502,0.83,1.92
		c0.048,0.057,0.074,0.125,0.074,0.203c0,0.139-0.088,0.252-0.207,0.301C9.684,18.963,8.34,19.66,8,20.443
		c-0.063,0.139-0.099,0.283-0.099,0.445C7.902,21.453,8.329,22,8.884,22z"/>
	<rect x="18" y="14" width="6" height="1"/>
	<rect x="18" y="17" width="6" height="1"/>
	<rect x="18" y="20" width="3" height="1"/>
</g>
</svg>
