<?xml version="1.0" encoding="utf-8"?>
<!-- Generator: Adobe Illustrator 16.0.0, SVG Export Plug-In . SVG Version: 6.00 Build 0)  -->
<!DOCTYPE svg PUBLIC "-//W3C//DTD SVG 1.1//EN" "http://www.w3.org/Graphics/SVG/1.1/DTD/svg11.dtd">
<svg version="1.1" id="Layer_1" xmlns="http://www.w3.org/2000/svg" xmlns:xlink="http://www.w3.org/1999/xlink" x="0px" y="0px"
	 width="32px" height="32px" viewBox="0 0 32 32" enable-background="new 0 0 32 32" xml:space="preserve">
<g>
	<path d="M4.497,10.976h20v5h3V6.982c0-1.653-1.348-3.007-3.002-3.007H4.475c-1.654,0-2.978,1.354-2.978,3.007v17.996
		c0,1.652,1.324,2.997,2.979,2.997h15.021v-3h-15V10.976z M16.497,6.976h8v2h-8V6.976z M12.497,6.976h2v2h-2V6.976z M8.497,6.976h2
		v2h-2V6.976z M4.497,6.976h2v2h-2V6.976z"/>
	<path d="M29.892,22.023h-0.744v-0.871c0-1.727-1.4-3.129-3.131-3.129c-1.729,0-3.129,1.402-3.129,3.129v0.871h-0.774
		c-0.341,0-0.616,0.279-0.616,0.617v4.772c0,0.336,0.275,0.611,0.616,0.611h7.778c0.336,0,0.611-0.275,0.611-0.611v-4.772
		C30.503,22.303,30.228,22.023,29.892,22.023z M26.685,26.693h-1.365l0.212-1.696c-0.21-0.148-0.354-0.383-0.354-0.664
		c0-0.455,0.368-0.826,0.824-0.826c0.459,0,0.827,0.371,0.827,0.826c0,0.281-0.146,0.516-0.358,0.664L26.685,26.693z M27.892,22.023
		H24.14v-0.94c0-1.035,0.84-1.873,1.877-1.873c1.035,0,1.875,0.838,1.875,1.873V22.023z"/>
</g>
</svg>
