<?xml version="1.0" encoding="utf-8"?>
<!-- Generator: Adobe Illustrator 16.0.0, SVG Export Plug-In . SVG Version: 6.00 Build 0)  -->
<!DOCTYPE svg PUBLIC "-//W3C//DTD SVG 1.1//EN" "http://www.w3.org/Graphics/SVG/1.1/DTD/svg11.dtd">
<svg version="1.1" id="Layer_1" xmlns="http://www.w3.org/2000/svg" xmlns:xlink="http://www.w3.org/1999/xlink" x="0px" y="0px"
	 width="32px" height="32px" viewBox="0 0 32 32" enable-background="new 0 0 32 32" xml:space="preserve">
<g>
	<rect x="9.042" y="18" width="3" height="4"/>
	<rect x="14.5" y="16" width="3" height="6"/>
	<path d="M26.023,4H6.004C4.35,4,3,5.374,3,7.026v17.996C3,26.675,4.35,28,6.004,28h20.02C27.678,28,29,26.675,29,25.021V7.026
		C29,5.374,27.678,4,26.023,4z M18,7h8v2h-8V7z M14.008,7.015h2v2h-2V7.015z M10.008,7.015h2v2h-2V7.015z M6.008,7.015h2v2h-2V7.015
		z M26,25H6V11h20V25z"/>
	<rect x="20" y="14" width="3" height="8"/>
</g>
</svg>
