<?xml version="1.0" encoding="utf-8"?>
<!-- Generator: Adobe Illustrator 16.0.0, SVG Export Plug-In . SVG Version: 6.00 Build 0)  -->
<!DOCTYPE svg PUBLIC "-//W3C//DTD SVG 1.1//EN" "http://www.w3.org/Graphics/SVG/1.1/DTD/svg11.dtd">
<svg version="1.1" id="Layer_1" xmlns="http://www.w3.org/2000/svg" xmlns:xlink="http://www.w3.org/1999/xlink" x="0px" y="0px"
	 width="32px" height="32px" viewBox="0 0 32 32" enable-background="new 0 0 32 32" xml:space="preserve">
<g>
	<path d="M25.977,4H5.957C4.303,4,3,5.338,3,6.99v17.996C3,26.639,4.303,28,5.957,28h20.02C27.631,28,29,26.639,29,24.986V6.99
		C29,5.338,27.631,4,25.977,4z M18,7h8v2h-8V7z M14,7h2v2h-2V7z M10,7h2v2h-2V7z M6,7h2v2H6V7z M26,25H6V11h20V25z"/>
	<path d="M8.929,22.125c0.896,0.492,2.018,0.164,2.512-0.73c0.296-0.547,0.289-1.174,0.038-1.694l1.267-1.814
		c0.227,0.005,0.457-0.028,0.683-0.108c0.062-0.025,0.122-0.053,0.184-0.082l1.987,1.082c0.024,0.32,0.127,0.643,0.322,0.926
		c0.584,0.838,1.732,1.047,2.573,0.465c0.534-0.369,0.812-0.975,0.788-1.58l2.135-1.557c0.162,0.066,0.333,0.113,0.514,0.133
		c1.016,0.115,1.928-0.611,2.043-1.627c0.114-1.012-0.615-1.928-1.629-2.039c-1.013-0.117-1.928,0.613-2.039,1.627
		c-0.019,0.141-0.015,0.281-0.002,0.416l-2.013,1.473c-0.576-0.299-1.288-0.279-1.862,0.098l-1.79-0.97
		c0.012-0.246-0.02-0.492-0.108-0.734c-0.352-0.955-1.41-1.451-2.369-1.104c-0.958,0.353-1.449,1.412-1.101,2.369
		c0.026,0.08,0.064,0.16,0.104,0.23l-1.233,1.764c-0.69-0.041-1.376,0.311-1.729,0.955C7.707,20.514,8.035,21.635,8.929,22.125z"/>
</g>
</svg>
