<?xml version="1.0" encoding="utf-8"?>
<!-- Generator: Adobe Illustrator 19.2.1, SVG Export Plug-In . SVG Version: 6.00 Build 0)  -->
<!DOCTYPE svg PUBLIC "-//W3C//DTD SVG 1.1//EN" "http://www.w3.org/Graphics/SVG/1.1/DTD/svg11.dtd">
<svg version="1.1" id="Layer_1" xmlns="http://www.w3.org/2000/svg" xmlns:xlink="http://www.w3.org/1999/xlink" x="0px" y="0px"
	 width="288px" height="68.77px" viewBox="0 0 288 68.77" style="enable-background:new 0 0 288 68.77;" xml:space="preserve">
<style type="text/css">
	.st0{fill:#FFFFFF;}
</style>
<g>
	<path class="st0" d="M41.22,42.11c0,2.84-2.3,5.14-5.14,5.14c-2.84,0-5.13-2.3-5.13-5.14c0-2.84,2.3-5.14,5.13-5.14
		C38.92,36.98,41.22,39.28,41.22,42.11 M29,45.21c0-2.84-2.3-5.14-5.14-5.14c-2.84,0-5.14,2.3-5.14,5.14c0,2.84,2.3,5.14,5.14,5.14
		C26.71,50.34,29,48.04,29,45.21 M17.11,40.65c0-2.84-2.3-5.14-5.14-5.14c-2.84,0-5.14,2.3-5.14,5.14c0,2.84,2.3,5.14,5.14,5.14
		C14.81,45.78,17.11,43.48,17.11,40.65 M10.27,30.22c0-2.84-2.3-5.14-5.14-5.14C2.3,25.09,0,27.39,0,30.22
		c0,2.84,2.3,5.14,5.14,5.14C7.97,35.36,10.27,33.06,10.27,30.22 M11.09,17.35c0-2.84-2.3-5.14-5.14-5.14
		c-2.84,0-5.13,2.3-5.13,5.14c0,2.84,2.3,5.14,5.13,5.14C8.79,22.49,11.09,20.19,11.09,17.35 M19.39,7.74c0-2.84-2.3-5.14-5.14-5.14
		s-5.14,2.3-5.14,5.14c0,2.84,2.3,5.14,5.14,5.14S19.39,10.58,19.39,7.74 M31.77,5.14c0-2.84-2.3-5.14-5.14-5.14
		C23.8,0,21.5,2.3,21.5,5.14c0,2.84,2.3,5.14,5.13,5.14C29.47,10.27,31.77,7.97,31.77,5.14 M43.18,11c0-2.84-2.3-5.14-5.14-5.14
		c-2.84,0-5.14,2.3-5.14,5.14c0,2.84,2.3,5.14,5.14,5.14C40.88,16.14,43.18,13.84,43.18,11 M31.13,24.9c0-3.82-3.1-6.92-6.92-6.92
		c-3.82,0-6.92,3.1-6.92,6.92c0,3.82,3.1,6.92,6.92,6.92C28.03,31.82,31.13,28.72,31.13,24.9 M58.65,24.19l-20.83,4.97
		c0,0,0,0.01,0,0.01c-0.31,0.08-0.53,0.36-0.53,0.69c0,0.37,0.29,0.67,0.65,0.71v0c2.4,0.32,5.95,1.04,8.26,4.04
		c2.27,2.94,2.05,6.39,1.72,8.73c-0.01,0.04-0.02,0.09-0.02,0.13v0.01c0,0.01,0,0.02,0,0.03c0,0.39,0.32,0.71,0.71,0.71
		c0.27,0,0.5-0.15,0.62-0.37l0,0L59.4,25.18C59.77,24.51,59.39,24.02,58.65,24.19 M88.78,15.35H76.74v10.02H87.5
		c0.64,0,0.92,0.27,0.92,0.82v1.65c0,0.64-0.23,0.82-0.87,0.82h-10.8v13.91c0,0.78-0.23,0.96-0.92,0.96h-2.38
		c-0.73,0-0.96-0.14-0.96-1.01v-29.6c0-0.64,0.23-0.92,0.87-0.92h16.11c0.55,0,0.78,0.32,0.73,0.82l-0.18,1.78
		C89.97,15.26,89.55,15.35,88.78,15.35 M97.97,42.57c0,0.64-0.27,0.96-0.82,0.96h-2.24c-0.55,0-0.82-0.27-0.82-0.92V12.24
		c0-0.64,0.14-0.82,0.69-0.92C97.15,11,97.19,11,97.29,11c0.41,0,0.69,0.18,0.69,0.78V42.57z M117.6,30.4v-0.64
		c0-3.11-1.69-5.81-5.17-5.81c-3.8,0-5.95,3.06-6.31,6.45H117.6z M121.44,31.77c0,1.05-0.18,1.28-1.37,1.28h-14.05
		c0.14,4.35,2.61,7.73,7.23,7.73c1.88,0,3.94-0.37,5.49-0.96c0.41-0.14,0.87-0.23,1.01,0.32l0.5,1.69c0.14,0.41-0.09,0.59-0.5,0.82
		c-1.97,0.91-4.9,1.33-7,1.33c-7.05,0-10.8-4.62-10.8-11.53c0-6.54,4.07-11.53,10.66-11.53c2.61,0,4.71,0.96,6.22,2.52
		c1.83,1.88,2.61,4.58,2.61,7.55V31.77z M139.51,30.4v-0.64c0-3.11-1.69-5.81-5.17-5.81c-3.8,0-5.95,3.06-6.31,6.45H139.51z
		 M143.36,31.77c0,1.05-0.18,1.28-1.37,1.28h-14.05c0.14,4.35,2.61,7.73,7.23,7.73c1.88,0,3.93-0.37,5.49-0.96
		c0.41-0.14,0.87-0.23,1.01,0.32l0.5,1.69c0.14,0.41-0.09,0.59-0.5,0.82c-1.97,0.91-4.9,1.33-7,1.33c-7.05,0-10.8-4.62-10.8-11.53
		c0-6.54,4.07-11.53,10.66-11.53c2.61,0,4.71,0.96,6.22,2.52c1.83,1.88,2.61,4.58,2.61,7.55V31.77z M155.16,40.92
		c1.05,0,2.15-0.32,2.88-0.55c0.32-0.14,0.69,0,0.82,0.41l0.37,1.46c0.09,0.46-0.05,0.69-0.6,0.91c-1.05,0.41-2.7,0.82-4.26,0.82
		c-1.97,0-3.93-0.55-4.99-1.69c-1.33-1.46-1.42-3.29-1.42-6.13V24.18h-2.52c-0.59,0-0.69-0.09-0.69-0.69v-1.42
		c0-0.46,0.18-0.64,0.59-0.64h2.61v-5.22c0-0.64,0.18-0.82,0.78-0.92l2.24-0.32h0.18c0.46,0,0.69,0.32,0.69,0.82v5.63h5.4
		c0.41,0,0.64,0.09,0.64,0.59v1.56c0,0.46-0.23,0.59-0.69,0.59h-5.35v12.35c0,1.51,0.09,2.7,0.78,3.48
		C153.15,40.56,153.97,40.92,155.16,40.92 M194.78,42.57c0,0.64-0.27,0.96-0.87,0.96h-2.1c-0.6,0-0.92-0.32-0.92-0.96V29.71
		c0-3.29-0.82-5.58-4.53-5.58c-1.88,0-4.12,0.91-5.72,2.15c0.27,0.87,0.37,3.61,0.37,5.03v11.26c0,0.64-0.27,0.96-0.87,0.96h-2.1
		c-0.59,0-0.92-0.32-0.92-0.96V29.71c0-3.16-0.69-5.58-4.3-5.58c-2.11,0-4.3,1.19-5.95,2.7v15.74c0,0.64-0.27,0.96-0.87,0.96h-2.15
		c-0.6,0-0.87-0.32-0.87-0.96V22.35c0-0.6,0.32-0.92,0.87-0.92h1.97c0.55,0,0.92,0.23,0.92,0.82l0.05,1.42
		c1.92-1.74,4.48-2.74,6.95-2.74c2.52,0,4.76,0.91,5.95,2.84c2.11-1.88,4.99-2.84,7.64-2.84c3.07,0,4.99,1.14,6.09,2.84
		c0.96,1.51,1.37,3.52,1.37,6.09V42.57z M214.36,27.33c-1.1-2.06-3.34-3.29-5.54-3.29c-3.52,0-6.18,3.11-6.18,8.55
		c0,5.03,2.33,8.14,5.63,8.14c2.93,0,5.26-2.33,6.09-4.62V27.33z M220.22,42.94c0,0.46-0.23,0.59-0.69,0.59h-1.92
		c-2.01,0-2.97-1.55-2.97-3.39h-0.09c-1.05,2.01-4.07,3.84-6.86,3.84c-6.31,0-9.11-5.35-9.11-11.12c0-7.64,4.53-11.94,9.75-11.94
		c2.29,0,4.76,0.96,6.13,2.79l0.05-1.51c0-0.55,0.37-0.78,0.87-0.78h2.06c0.55,0,0.82,0.27,0.82,0.87v16.01
		c0,1.05,0.05,1.78,0.23,2.06c0.18,0.32,0.41,0.41,0.78,0.41h0.32c0.41,0,0.64,0.09,0.64,0.59V42.94z M230.93,40.92
		c1.05,0,2.15-0.32,2.88-0.55c0.32-0.14,0.69,0,0.82,0.41l0.37,1.46c0.09,0.46-0.05,0.69-0.6,0.91c-1.05,0.41-2.7,0.82-4.26,0.82
		c-1.97,0-3.93-0.55-4.99-1.69c-1.33-1.46-1.42-3.29-1.42-6.13V24.18h-2.52c-0.59,0-0.69-0.09-0.69-0.69v-1.42
		c0-0.46,0.18-0.64,0.59-0.64h2.61v-5.22c0-0.64,0.18-0.82,0.78-0.92l2.24-0.32h0.18c0.46,0,0.69,0.32,0.69,0.82v5.63h5.4
		c0.41,0,0.64,0.09,0.64,0.59v1.56c0,0.46-0.23,0.59-0.69,0.59h-5.35v12.35c0,1.51,0.09,2.7,0.78,3.48
		C228.91,40.56,229.74,40.92,230.93,40.92 M243.05,42.57c0,0.64-0.27,0.96-0.87,0.96h-2.11c-0.59,0-0.91-0.32-0.91-0.96V22.35
		c0-0.64,0.32-0.92,0.91-0.92h2.11c0.59,0,0.87,0.27,0.87,0.92V42.57z M241.08,18.23c-1.23,0-2.33-0.87-2.33-2.2
		c0-1.33,1.1-2.2,2.33-2.2c1.24,0,2.38,0.87,2.38,2.2C243.46,17.36,242.27,18.23,241.08,18.23 M263.27,42.66
		c-1.97,0.91-4.07,1.33-6.18,1.33c-7.18,0-10.66-4.67-10.66-11.48c0-6.73,4.07-11.57,10.94-11.57c1.97,0,4.26,0.5,5.86,1.33
		c0.32,0.14,0.46,0.32,0.46,0.6c0,0.14-0.05,0.23-0.09,0.37l-0.37,1.46c-0.09,0.32-0.23,0.55-0.5,0.55c-0.09,0-0.27-0.05-0.41-0.14
		c-1.42-0.64-2.97-1.14-4.76-1.14c-4.35,0-7.09,3.25-7.09,8.37c0,4.67,2.01,8.69,6.91,8.69c1.97,0,3.66-0.46,5.12-1.1
		c0.14-0.05,0.27-0.09,0.37-0.09c0.23,0,0.37,0.14,0.46,0.46l0.41,1.28c0.05,0.18,0.09,0.37,0.09,0.5
		C263.82,42.34,263.68,42.48,263.27,42.66 M272.7,43.99c-2.33,0-4.76-0.78-6.27-1.46c-0.41-0.18-0.55-0.5-0.41-0.87l0.59-1.65
		c0.14-0.37,0.46-0.55,0.78-0.41c1.74,0.73,3.89,1.37,5.44,1.37c2.65,0,4.44-1.28,4.44-3.43c0-1.78-1.33-2.75-3.43-3.57l-3.07-1.19
		c-2.7-1.05-4.71-2.88-4.71-5.76c0-4.03,3.66-6.08,7.69-6.08c1.97,0,3.89,0.32,5.95,1.28c0.27,0.14,0.41,0.27,0.41,0.46
		c0,0.09-0.04,0.23-0.09,0.37l-0.5,1.6c-0.09,0.32-0.27,0.46-0.5,0.46c-0.09,0-0.23-0.05-0.37-0.09c-1.19-0.55-3.34-1.1-4.8-1.1
		c-2.43,0-3.75,1.28-3.75,2.84c0,1.56,0.92,2.29,2.84,3.11l3.57,1.51c2.52,1.05,4.58,2.88,4.58,5.81
		C281.07,41.38,277.55,43.99,272.7,43.99 M166.46,57.34h1.46l3.5,9.14h-1.43l-0.94-2.66h-3.74l-0.97,2.66h-1.34L166.46,57.34z
		 M165.65,62.83h3.04l-0.91-2.55c-0.32-0.88-0.57-1.94-0.57-1.94h-0.04c0,0-0.28,1.09-0.59,1.94L165.65,62.83z M175.54,57.34h1.4
		l2.08,6.09c0.23,0.66,0.56,1.95,0.56,1.95h0.03c0,0,0.33-1.31,0.55-1.95l2.06-6.09h1.35l-3.32,9.14h-1.43L175.54,57.34z
		 M183.59,63.19c0-1.92,1.32-3.46,3.28-3.46c1.02,0,1.81,0.38,2.35,1.02c0.56,0.65,0.84,1.6,0.84,2.71h-5.26
		c0.09,1.29,0.82,2.27,2.15,2.27c0.94,0,1.6-0.43,1.81-1.13h1.16c-0.31,1.23-1.4,2.06-2.99,2.06
		C184.83,66.66,183.59,65.11,183.59,63.19z M184.83,62.63h3.97c-0.06-1.26-0.74-2.03-1.93-2.03
		C185.64,60.61,184.98,61.47,184.83,62.63z M192.55,61.07h0.04c0.42-0.76,1.12-1.28,2.03-1.28c0.19,0,0.31,0.02,0.43,0.07v1.08
		h-0.04c-0.17-0.05-0.28-0.06-0.49-0.06c-1.06,0-1.97,0.76-1.97,2v3.59h-1.19v-6.59h1.17V61.07z M196.12,57.34h1.24v1.33h-1.24
		V57.34z M196.14,59.88h1.19v6.59h-1.19V59.88z M198.52,65.59l3.06-3.84c0.28-0.34,0.82-0.9,0.82-0.9v-0.04c0,0-0.82,0.04-1.29,0.04
		h-2.36v-0.97h5.15v0.71l-3.12,3.92c-0.29,0.36-0.87,0.96-0.87,0.96v0.04c0,0,0.87-0.04,1.37-0.04h2.77v1.01h-5.53V65.59z
		 M204.71,63.19c0-1.92,1.29-3.46,3.36-3.46c2.07,0,3.33,1.55,3.33,3.46c0,1.93-1.26,3.47-3.33,3.47
		C206,66.66,204.71,65.11,204.71,63.19z M210.19,63.19c0-1.42-0.73-2.55-2.13-2.55s-2.13,1.13-2.13,2.55c0,1.42,0.73,2.54,2.13,2.54
		S210.19,64.61,210.19,63.19z M213.9,60.82h0.04c0.5-0.66,1.17-1.09,2.17-1.09c1.43,0,2.31,0.77,2.31,2.15v4.6h-1.17v-4.47
		c0-0.85-0.57-1.33-1.51-1.33c-1.06,0-1.83,0.72-1.83,1.78v4.01h-1.19v-6.59h1.17V60.82z M223.48,61.91c0-2.69,1.69-4.76,4.51-4.76
		c1.11,0,2,0.31,2.64,0.81c0.68,0.53,1.09,1.28,1.21,2.15h-1.3c-0.22-1.12-1.12-1.87-2.58-1.87c-2.02,0-3.15,1.57-3.15,3.67
		c0,2.19,1.25,3.66,3.17,3.66c1.72,0,2.55-1.12,2.67-2.42h1.3c-0.01,0.91-0.46,1.92-1.14,2.54c-0.66,0.64-1.63,0.97-2.86,0.97
		C225.24,66.66,223.48,64.67,223.48,61.91z M233.06,63.19c0-1.92,1.29-3.46,3.36-3.46c2.07,0,3.33,1.55,3.33,3.46
		c0,1.93-1.26,3.47-3.33,3.47C234.35,66.66,233.06,65.11,233.06,63.19z M238.54,63.19c0-1.42-0.73-2.55-2.13-2.55
		s-2.13,1.13-2.13,2.55c0,1.42,0.73,2.54,2.13,2.54S238.54,64.61,238.54,63.19z M241.08,59.88h1.17v0.98h0.04
		c0.42-0.71,1.15-1.14,2.03-1.14c0.83,0,1.49,0.42,1.78,1.23h0.03c0.49-0.82,1.29-1.23,2.12-1.23c1.25,0,2.12,0.77,2.12,2.15v4.6
		h-1.19v-4.51c0-0.81-0.55-1.29-1.24-1.29c-0.87,0-1.62,0.72-1.62,1.73v4.06h-1.17v-4.51c0-0.81-0.47-1.29-1.17-1.29
		c-0.82,0-1.7,0.72-1.7,1.73v4.06h-1.19V59.88z M252.02,59.88h1.17v1.03h0.04c0.51-0.75,1.2-1.19,2.18-1.19
		c1.75,0,2.95,1.3,2.95,3.47c0,2.11-1.14,3.47-2.99,3.47c-0.93,0-1.69-0.37-2.16-1.07h-0.04c0.01,0.23,0.03,0.6,0.03,1.11v2h-1.19
		V59.88z M257.16,63.22c0-1.45-0.63-2.53-1.89-2.53c-1.46,0-2.12,1.13-2.12,2.53c0,1.39,0.59,2.5,2.11,2.5
		C256.52,65.73,257.16,64.66,257.16,63.22z M259.33,64.73c0-1.53,1.17-1.87,2.95-2.08c1.01-0.11,1.66-0.27,1.66-0.95
		c0-0.71-0.52-1.15-1.47-1.15c-1.09,0-1.61,0.49-1.65,1.28h-1.15c0.05-1.12,0.93-2.11,2.78-2.11c0.65,0,1.23,0.11,1.66,0.36
		c0.57,0.33,0.92,0.91,0.92,1.79v3.08c0,0.53,0.13,0.81,0.73,0.69h0.05v0.8c-0.17,0.05-0.36,0.1-0.64,0.1
		c-0.73,0-1.09-0.33-1.21-1.03h-0.01c-0.43,0.58-1.14,1.11-2.3,1.11C260.36,66.61,259.33,66,259.33,64.73z M263.96,64.05v-1.08
		c-0.34,0.21-0.95,0.37-1.51,0.47c-1.12,0.18-1.86,0.38-1.86,1.29c0,0.85,0.68,1.06,1.37,1.06
		C263.32,65.78,263.96,64.81,263.96,64.05z M268.03,60.82h0.04c0.5-0.66,1.17-1.09,2.17-1.09c1.43,0,2.31,0.77,2.31,2.15v4.6h-1.17
		v-4.47c0-0.85-0.57-1.33-1.51-1.33c-1.06,0-1.83,0.72-1.83,1.78v4.01h-1.19v-6.59h1.17V60.82z M273.83,68.64v-0.98h0.05
		c0.13,0.07,0.42,0.12,0.72,0.12c0.47,0,0.78-0.17,1.02-0.8c0-0.02,0.27-0.76,0.24-0.83l-2.62-6.26h1.29l1.42,3.66
		c0.28,0.75,0.57,1.78,0.57,1.78h0.03c0,0,0.32-1.04,0.59-1.78l1.37-3.66h1.24l-2.91,7.2c-0.56,1.39-1.11,1.69-1.99,1.69
		C274.45,68.77,274.02,68.71,273.83,68.64z M288,17.06c0,0.48-0.09,0.94-0.27,1.36c-0.18,0.42-0.43,0.79-0.74,1.1
		c-0.31,0.31-0.68,0.56-1.11,0.74s-0.88,0.27-1.36,0.27c-0.5,0-0.96-0.09-1.39-0.26c-0.42-0.17-0.79-0.41-1.09-0.72
		c-0.3-0.3-0.54-0.67-0.71-1.09c-0.17-0.42-0.26-0.88-0.26-1.38c0-0.48,0.09-0.94,0.27-1.36c0.18-0.42,0.43-0.78,0.74-1.09
		c0.31-0.31,0.68-0.55,1.1-0.73c0.42-0.18,0.88-0.27,1.37-0.27c0.5,0,0.96,0.09,1.39,0.26s0.79,0.41,1.09,0.71
		c0.3,0.3,0.54,0.67,0.71,1.09C287.91,16.11,288,16.57,288,17.06z M287.2,17.12c0-0.42-0.07-0.8-0.2-1.14
		c-0.13-0.34-0.32-0.64-0.55-0.88s-0.52-0.43-0.84-0.56c-0.32-0.13-0.68-0.19-1.05-0.19c-0.41,0-0.78,0.07-1.1,0.21
		c-0.33,0.14-0.61,0.34-0.85,0.58s-0.42,0.54-0.55,0.86c-0.13,0.33-0.19,0.68-0.19,1.05c0,0.41,0.07,0.79,0.2,1.13
		c0.13,0.34,0.32,0.64,0.55,0.88s0.52,0.43,0.84,0.57c0.32,0.13,0.68,0.2,1.05,0.2c0.41,0,0.78-0.07,1.11-0.22
		c0.33-0.14,0.61-0.34,0.85-0.58c0.23-0.25,0.41-0.53,0.54-0.86C287.14,17.84,287.2,17.49,287.2,17.12z M286.16,18.74
		c0,0.02,0,0.05-0.01,0.07c-0.01,0.02-0.03,0.04-0.07,0.04c-0.04,0.01-0.09,0.02-0.15,0.02c-0.07,0.01-0.15,0.01-0.27,0.01
		c-0.1,0-0.18,0-0.24-0.01c-0.06-0.01-0.11-0.02-0.15-0.03c-0.04-0.01-0.07-0.04-0.09-0.06c-0.02-0.03-0.04-0.06-0.05-0.11
		l-0.19-0.61c-0.07-0.22-0.16-0.37-0.25-0.46c-0.1-0.09-0.24-0.13-0.44-0.13h-0.24v1.24c0,0.06-0.03,0.11-0.08,0.13
		c-0.05,0.02-0.17,0.04-0.35,0.04c-0.18,0-0.3-0.01-0.36-0.04c-0.06-0.02-0.09-0.07-0.09-0.13v-3.18c0-0.13,0.03-0.23,0.1-0.31
		c0.07-0.07,0.16-0.11,0.29-0.11h1.02c0.24,0,0.44,0.02,0.63,0.06c0.18,0.04,0.33,0.11,0.46,0.19c0.13,0.09,0.22,0.2,0.29,0.33
		c0.07,0.13,0.1,0.29,0.1,0.47c0,0.28-0.08,0.5-0.23,0.66c-0.15,0.16-0.36,0.27-0.62,0.33c0.14,0.05,0.27,0.13,0.4,0.24
		c0.12,0.11,0.23,0.28,0.32,0.51l0.21,0.57C286.14,18.62,286.16,18.7,286.16,18.74z M285.06,16.28c0-0.06-0.01-0.13-0.03-0.19
		c-0.02-0.06-0.05-0.11-0.1-0.16c-0.05-0.04-0.12-0.08-0.2-0.1c-0.08-0.02-0.19-0.04-0.31-0.04h-0.41v0.99h0.39
		c0.25,0,0.42-0.05,0.51-0.14C285.01,16.56,285.06,16.44,285.06,16.28z"/>
</g>
</svg>
