<?xml version="1.0" encoding="utf-8"?>
<!-- Generator: Adobe Illustrator 19.2.1, SVG Export Plug-In . SVG Version: 6.00 Build 0)  -->
<!DOCTYPE svg PUBLIC "-//W3C//DTD SVG 1.1//EN" "http://www.w3.org/Graphics/SVG/1.1/DTD/svg11.dtd">
<svg version="1.1" id="Layer_1" xmlns="http://www.w3.org/2000/svg" xmlns:xlink="http://www.w3.org/1999/xlink" x="0px" y="0px"
	 width="288px" height="68.77px" viewBox="0 0 288 68.77" style="enable-background:new 0 0 288 68.77;" xml:space="preserve">
<style type="text/css">
	.st0{fill:#77787B;}
	.st1{fill:#8A8C8E;}
	.st2{fill:#9D9FA2;}
	.st3{fill:#A7A9AC;}
	.st4{fill:#B1B3B6;}
	.st5{fill:#BCBEC0;}
	.st6{fill:#C7C8CA;}
	.st7{fill:#D1D3D4;}
	.st8{fill:#00C0F3;}
	.st9{fill:#636466;}
</style>
<g>
	<g>
		<g>
			<path class="st0" d="M41.22,42.11c0,2.84-2.3,5.14-5.14,5.14c-2.84,0-5.13-2.3-5.13-5.14c0-2.84,2.3-5.14,5.13-5.14
				C38.92,36.98,41.22,39.28,41.22,42.11"/>
			<path class="st1" d="M29,45.21c0,2.84-2.3,5.14-5.14,5.14c-2.84,0-5.14-2.3-5.14-5.14c0-2.84,2.3-5.14,5.14-5.14
				C26.71,40.07,29,42.37,29,45.21"/>
			<path class="st2" d="M17.11,40.65c0,2.84-2.3,5.14-5.14,5.14c-2.84,0-5.14-2.3-5.14-5.14c0-2.84,2.3-5.14,5.14-5.14
				C14.81,35.51,17.11,37.81,17.11,40.65"/>
			<path class="st3" d="M10.27,30.22c0,2.84-2.3,5.14-5.14,5.14C2.3,35.36,0,33.06,0,30.22c0-2.84,2.3-5.14,5.14-5.14
				C7.97,25.09,10.27,27.39,10.27,30.22"/>
			<path class="st4" d="M11.09,17.35c0,2.84-2.3,5.14-5.14,5.14c-2.84,0-5.13-2.3-5.13-5.14c0-2.84,2.3-5.14,5.13-5.14
				C8.79,12.22,11.09,14.52,11.09,17.35"/>
			<path class="st5" d="M19.39,7.74c0,2.84-2.3,5.14-5.14,5.14s-5.14-2.3-5.14-5.14c0-2.84,2.3-5.14,5.14-5.14
				S19.39,4.91,19.39,7.74"/>
			<path class="st6" d="M31.77,5.14c0,2.84-2.3,5.14-5.14,5.14c-2.84,0-5.13-2.3-5.13-5.14C21.5,2.3,23.8,0,26.64,0
				C29.47,0,31.77,2.3,31.77,5.14"/>
			<path class="st7" d="M43.18,11c0,2.84-2.3,5.14-5.14,5.14c-2.84,0-5.14-2.3-5.14-5.14c0-2.84,2.3-5.14,5.14-5.14
				C40.88,5.86,43.18,8.16,43.18,11"/>
			<path class="st8" d="M31.13,24.9c0,3.82-3.1,6.92-6.92,6.92c-3.82,0-6.92-3.1-6.92-6.92c0-3.82,3.1-6.92,6.92-6.92
				C28.03,17.98,31.13,21.08,31.13,24.9"/>
			<path class="st9" d="M58.65,24.19c0.74-0.18,1.12,0.32,0.76,0.99L49.23,43.85l0,0c-0.12,0.22-0.35,0.37-0.62,0.37
				c-0.39,0-0.71-0.32-0.71-0.71c0-0.01,0-0.02,0-0.03v-0.01c0-0.05,0.01-0.09,0.02-0.13c0.33-2.34,0.55-5.79-1.72-8.73
				c-2.31-3-5.86-3.72-8.26-4.04v0c-0.36-0.03-0.65-0.34-0.65-0.71c0-0.33,0.23-0.6,0.53-0.69c0,0,0-0.01,0-0.01L58.65,24.19"/>
		</g>
		<path class="st9" d="M88.78,15.35c0.78,0,1.19-0.09,1.23-0.73l0.18-1.78c0.05-0.5-0.18-0.82-0.73-0.82H73.36
			c-0.64,0-0.87,0.27-0.87,0.92v29.6c0,0.87,0.23,1.01,0.96,1.01h2.38c0.69,0,0.92-0.18,0.92-0.96V28.66h10.8
			c0.64,0,0.87-0.18,0.87-0.82v-1.65c0-0.55-0.27-0.82-0.92-0.82H76.74V15.35H88.78 M97.97,11.78c0-0.59-0.27-0.78-0.69-0.78
			c-0.09,0-0.14,0-2.52,0.32c-0.55,0.09-0.69,0.27-0.69,0.92v30.38c0,0.64,0.27,0.92,0.82,0.92h2.24c0.55,0,0.82-0.32,0.82-0.96
			V11.78z M106.12,30.4c0.37-3.39,2.52-6.45,6.31-6.45c3.48,0,5.17,2.7,5.17,5.81v0.64H106.12z M121.44,30.99
			c0-2.97-0.78-5.67-2.61-7.55c-1.51-1.56-3.61-2.52-6.22-2.52c-6.59,0-10.66,4.99-10.66,11.53c0,6.91,3.75,11.53,10.8,11.53
			c2.1,0,5.03-0.41,7-1.33c0.41-0.23,0.64-0.41,0.5-0.82l-0.5-1.69c-0.14-0.55-0.59-0.46-1.01-0.32c-1.56,0.59-3.61,0.96-5.49,0.96
			c-4.62,0-7.09-3.39-7.23-7.73h14.05c1.19,0,1.37-0.23,1.37-1.28V30.99z M128.03,30.4c0.37-3.39,2.52-6.45,6.31-6.45
			c3.48,0,5.17,2.7,5.17,5.81v0.64H128.03z M143.36,30.99c0-2.97-0.78-5.67-2.61-7.55c-1.51-1.56-3.61-2.52-6.22-2.52
			c-6.59,0-10.66,4.99-10.66,11.53c0,6.91,3.75,11.53,10.8,11.53c2.11,0,5.03-0.41,7-1.33c0.41-0.23,0.64-0.41,0.5-0.82l-0.5-1.69
			c-0.14-0.55-0.6-0.46-1.01-0.32c-1.56,0.59-3.61,0.96-5.49,0.96c-4.62,0-7.09-3.39-7.23-7.73h14.05c1.19,0,1.37-0.23,1.37-1.28
			V30.99z M155.16,40.92c-1.19,0-2.01-0.37-2.52-0.91c-0.69-0.78-0.78-1.97-0.78-3.48V24.18h5.35c0.46,0,0.69-0.14,0.69-0.59v-1.56
			c0-0.5-0.23-0.59-0.64-0.59h-5.4V15.8c0-0.5-0.23-0.82-0.69-0.82H151l-2.24,0.32c-0.59,0.09-0.78,0.27-0.78,0.92v5.22h-2.61
			c-0.41,0-0.59,0.18-0.59,0.64v1.42c0,0.59,0.09,0.69,0.69,0.69h2.52v11.99c0,2.84,0.09,4.67,1.42,6.13
			c1.05,1.14,3.02,1.69,4.99,1.69c1.56,0,3.2-0.41,4.26-0.82c0.55-0.23,0.69-0.46,0.6-0.91l-0.37-1.46
			c-0.14-0.41-0.5-0.55-0.82-0.41C157.31,40.6,156.21,40.92,155.16,40.92 M194.78,29.85c0-2.56-0.41-4.57-1.37-6.09
			c-1.1-1.69-3.02-2.84-6.09-2.84c-2.65,0-5.54,0.96-7.64,2.84c-1.19-1.92-3.43-2.84-5.95-2.84c-2.47,0-5.03,1.01-6.95,2.74
			l-0.05-1.42c0-0.6-0.37-0.82-0.92-0.82h-1.97c-0.55,0-0.87,0.32-0.87,0.92v20.22c0,0.64,0.27,0.96,0.87,0.96H166
			c0.6,0,0.87-0.32,0.87-0.96V26.83c1.65-1.51,3.84-2.7,5.95-2.7c3.61,0,4.3,2.42,4.3,5.58v12.86c0,0.64,0.32,0.96,0.92,0.96h2.1
			c0.59,0,0.87-0.32,0.87-0.96V31.31c0-1.42-0.09-4.16-0.37-5.03c1.6-1.24,3.84-2.15,5.72-2.15c3.71,0,4.53,2.29,4.53,5.58v12.86
			c0,0.64,0.32,0.96,0.92,0.96h2.1c0.59,0,0.87-0.32,0.87-0.96V29.85z M214.36,36.12c-0.82,2.29-3.16,4.62-6.09,4.62
			c-3.29,0-5.63-3.11-5.63-8.14c0-5.44,2.65-8.55,6.18-8.55c2.2,0,4.44,1.24,5.54,3.29V36.12z M220.22,41.38
			c0-0.5-0.23-0.59-0.64-0.59h-0.32c-0.37,0-0.59-0.09-0.78-0.41c-0.18-0.27-0.23-1.01-0.23-2.06V22.3c0-0.59-0.28-0.87-0.82-0.87
			h-2.06c-0.5,0-0.87,0.23-0.87,0.78l-0.05,1.51c-1.37-1.83-3.84-2.79-6.13-2.79c-5.22,0-9.75,4.3-9.75,11.94
			c0,5.76,2.79,11.12,9.11,11.12c2.79,0,5.81-1.83,6.86-3.84h0.09c0,1.83,0.96,3.39,2.97,3.39h1.92c0.46,0,0.69-0.14,0.69-0.59
			V41.38z M230.93,40.92c-1.19,0-2.01-0.37-2.52-0.91c-0.69-0.78-0.78-1.97-0.78-3.48V24.18h5.35c0.46,0,0.69-0.14,0.69-0.59v-1.56
			c0-0.5-0.23-0.59-0.64-0.59h-5.4V15.8c0-0.5-0.23-0.82-0.69-0.82h-0.18l-2.24,0.32c-0.59,0.09-0.78,0.27-0.78,0.92v5.22h-2.61
			c-0.41,0-0.59,0.18-0.59,0.64v1.42c0,0.59,0.09,0.69,0.69,0.69h2.52v11.99c0,2.84,0.09,4.67,1.42,6.13
			c1.05,1.14,3.02,1.69,4.99,1.69c1.56,0,3.2-0.41,4.26-0.82c0.55-0.23,0.69-0.46,0.6-0.91l-0.37-1.46
			c-0.14-0.41-0.5-0.55-0.82-0.41C233.08,40.6,231.98,40.92,230.93,40.92 M243.05,22.35c0-0.64-0.27-0.92-0.87-0.92h-2.11
			c-0.59,0-0.91,0.27-0.91,0.92v20.22c0,0.64,0.32,0.96,0.91,0.96h2.11c0.59,0,0.87-0.32,0.87-0.96V22.35z M241.08,18.23
			c1.19,0,2.38-0.87,2.38-2.2c0-1.33-1.14-2.2-2.38-2.2c-1.23,0-2.33,0.87-2.33,2.2C238.75,17.36,239.85,18.23,241.08,18.23
			 M263.27,42.66c0.41-0.18,0.55-0.32,0.55-0.59c0-0.14-0.05-0.32-0.09-0.5l-0.41-1.28c-0.09-0.32-0.23-0.46-0.46-0.46
			c-0.09,0-0.23,0.05-0.37,0.09c-1.46,0.64-3.16,1.1-5.12,1.1c-4.9,0-6.91-4.03-6.91-8.69c0-5.12,2.75-8.37,7.09-8.37
			c1.78,0,3.34,0.5,4.76,1.14c0.14,0.09,0.32,0.14,0.41,0.14c0.27,0,0.41-0.23,0.5-0.55l0.37-1.46c0.05-0.14,0.09-0.23,0.09-0.37
			c0-0.27-0.14-0.46-0.46-0.6c-1.6-0.82-3.89-1.33-5.86-1.33c-6.86,0-10.94,4.85-10.94,11.57c0,6.82,3.48,11.48,10.66,11.48
			C259.2,43.99,261.31,43.58,263.27,42.66 M272.7,43.99c4.85,0,8.37-2.61,8.37-6.82c0-2.93-2.06-4.76-4.58-5.81l-3.57-1.51
			c-1.92-0.82-2.84-1.56-2.84-3.11c0-1.55,1.33-2.84,3.75-2.84c1.46,0,3.61,0.55,4.8,1.1c0.14,0.05,0.27,0.09,0.37,0.09
			c0.23,0,0.41-0.14,0.5-0.46l0.5-1.6c0.05-0.14,0.09-0.27,0.09-0.37c0-0.18-0.14-0.32-0.41-0.46c-2.06-0.96-3.98-1.28-5.95-1.28
			c-4.03,0-7.69,2.06-7.69,6.08c0,2.88,2.01,4.71,4.71,5.76l3.07,1.19c2.1,0.82,3.43,1.78,3.43,3.57c0,2.15-1.78,3.43-4.44,3.43
			c-1.56,0-3.71-0.64-5.44-1.37c-0.32-0.14-0.64,0.05-0.78,0.41l-0.59,1.65c-0.14,0.37,0,0.69,0.41,0.87
			C267.94,43.21,270.36,43.99,272.7,43.99 M162.98,66.48h1.34l0.97-2.66h3.74l0.94,2.66h1.43l-3.5-9.14h-1.46L162.98,66.48z
			 M166.59,60.28c0.31-0.85,0.59-1.94,0.59-1.94h0.04c0,0,0.26,1.06,0.57,1.94l0.91,2.55h-3.04L166.59,60.28z M178.82,66.48h1.43
			l3.32-9.14h-1.35l-2.06,6.09c-0.22,0.64-0.55,1.95-0.55,1.95h-0.03c0,0-0.33-1.29-0.56-1.95l-2.08-6.09h-1.4L178.82,66.48z
			 M186.94,66.66c1.58,0,2.68-0.83,2.99-2.06h-1.16c-0.22,0.7-0.87,1.13-1.81,1.13c-1.33,0-2.06-0.98-2.15-2.27h5.26
			c0-1.12-0.28-2.06-0.84-2.71c-0.54-0.64-1.33-1.02-2.35-1.02c-1.97,0-3.28,1.55-3.28,3.46C183.59,65.11,184.83,66.66,186.94,66.66
			z M186.87,60.61c1.19,0,1.86,0.76,1.93,2.03h-3.97C184.98,61.47,185.64,60.61,186.87,60.61z M192.55,59.88h-1.17v6.59h1.19v-3.59
			c0-1.24,0.91-2,1.97-2c0.2,0,0.32,0.01,0.49,0.06h0.04v-1.08c-0.13-0.05-0.24-0.07-0.43-0.07c-0.91,0-1.61,0.52-2.03,1.28h-0.04
			V59.88z M196.12,58.67h1.24v-1.33h-1.24V58.67z M196.14,66.48h1.19v-6.59h-1.19V66.48z M198.52,66.48h5.53v-1.01h-2.77
			c-0.5,0-1.37,0.04-1.37,0.04v-0.04c0,0,0.57-0.6,0.87-0.96l3.12-3.92v-0.71h-5.15v0.97h2.36c0.47,0,1.29-0.04,1.29-0.04v0.04
			c0,0-0.54,0.55-0.82,0.9l-3.06,3.84V66.48z M208.07,66.66c2.07,0,3.33-1.55,3.33-3.47c0-1.92-1.26-3.46-3.33-3.46
			c-2.07,0-3.36,1.55-3.36,3.46C204.71,65.11,206,66.66,208.07,66.66z M208.05,65.73c-1.4,0-2.13-1.12-2.13-2.54
			c0-1.42,0.73-2.55,2.13-2.55s2.13,1.13,2.13,2.55C210.19,64.61,209.46,65.73,208.05,65.73z M213.9,59.88h-1.17v6.59h1.19v-4.01
			c0-1.06,0.77-1.78,1.83-1.78c0.93,0,1.51,0.48,1.51,1.33v4.47h1.17v-4.6c0-1.38-0.88-2.15-2.31-2.15c-1,0-1.67,0.43-2.17,1.09
			h-0.04V59.88z M227.95,66.66c1.23,0,2.2-0.33,2.86-0.97c0.68-0.63,1.12-1.63,1.14-2.54h-1.3c-0.11,1.3-0.94,2.42-2.67,2.42
			c-1.92,0-3.17-1.47-3.17-3.66c0-2.1,1.14-3.67,3.15-3.67c1.46,0,2.36,0.75,2.58,1.87h1.3c-0.13-0.87-0.54-1.62-1.21-2.15
			c-0.64-0.5-1.53-0.81-2.64-0.81c-2.82,0-4.51,2.07-4.51,4.76C223.48,64.67,225.24,66.66,227.95,66.66z M236.42,66.66
			c2.07,0,3.33-1.55,3.33-3.47c0-1.92-1.26-3.46-3.33-3.46c-2.07,0-3.36,1.55-3.36,3.46C233.06,65.11,234.35,66.66,236.42,66.66z
			 M236.4,65.73c-1.4,0-2.13-1.12-2.13-2.54c0-1.42,0.73-2.55,2.13-2.55s2.13,1.13,2.13,2.55C238.54,64.61,237.81,65.73,236.4,65.73
			z M241.08,66.48h1.19v-4.06c0-1.01,0.88-1.73,1.7-1.73c0.7,0,1.17,0.48,1.17,1.29v4.51h1.17v-4.06c0-1.01,0.75-1.73,1.62-1.73
			c0.69,0,1.24,0.48,1.24,1.29v4.51h1.19v-4.6c0-1.38-0.87-2.15-2.12-2.15c-0.83,0-1.63,0.41-2.12,1.23h-0.03
			c-0.28-0.81-0.94-1.23-1.78-1.23c-0.88,0-1.61,0.43-2.03,1.14h-0.04v-0.98h-1.17V66.48z M252.02,68.71h1.19v-2
			c0-0.5-0.01-0.87-0.03-1.11h0.04c0.47,0.7,1.23,1.07,2.16,1.07c1.85,0,2.99-1.36,2.99-3.47c0-2.17-1.2-3.47-2.95-3.47
			c-0.98,0-1.67,0.44-2.18,1.19h-0.04v-1.03h-1.17V68.71z M255.25,65.73c-1.52,0-2.11-1.12-2.11-2.5c0-1.4,0.66-2.53,2.12-2.53
			c1.26,0,1.89,1.08,1.89,2.53C257.16,64.66,256.52,65.73,255.25,65.73z M261.66,66.61c1.16,0,1.86-0.53,2.3-1.11h0.01
			c0.13,0.7,0.49,1.03,1.21,1.03c0.28,0,0.47-0.05,0.64-0.1v-0.8h-0.05c-0.6,0.12-0.73-0.16-0.73-0.69v-3.08
			c0-0.88-0.34-1.46-0.92-1.79c-0.43-0.25-1.01-0.36-1.66-0.36c-1.85,0-2.73,0.99-2.78,2.11h1.15c0.04-0.79,0.56-1.28,1.65-1.28
			c0.94,0,1.47,0.44,1.47,1.15c0,0.68-0.65,0.83-1.66,0.95c-1.77,0.21-2.95,0.54-2.95,2.08C259.33,66,260.36,66.61,261.66,66.61z
			 M261.95,65.78c-0.69,0-1.37-0.21-1.37-1.06c0-0.91,0.74-1.1,1.86-1.29c0.56-0.1,1.16-0.26,1.51-0.47v1.08
			C263.96,64.81,263.32,65.78,261.95,65.78z M268.03,59.88h-1.17v6.59h1.19v-4.01c0-1.06,0.77-1.78,1.83-1.78
			c0.93,0,1.51,0.48,1.51,1.33v4.47h1.17v-4.6c0-1.38-0.88-2.15-2.31-2.15c-1,0-1.67,0.43-2.17,1.09h-0.04V59.88z M274.83,68.77
			c0.88,0,1.43-0.31,1.99-1.69l2.91-7.2h-1.24l-1.37,3.66c-0.27,0.74-0.59,1.78-0.59,1.78h-0.03c0,0-0.29-1.03-0.57-1.78l-1.42-3.66
			h-1.29l2.62,6.26c0.03,0.07-0.24,0.81-0.24,0.83c-0.24,0.63-0.55,0.8-1.02,0.8c-0.29,0-0.59-0.05-0.72-0.12h-0.05v0.98
			C274.02,68.71,274.45,68.77,274.83,68.77z M287.74,15.69c-0.17-0.42-0.41-0.78-0.71-1.09c-0.3-0.3-0.67-0.54-1.09-0.71
			s-0.88-0.26-1.39-0.26c-0.49,0-0.95,0.09-1.37,0.27c-0.42,0.18-0.79,0.42-1.1,0.73c-0.31,0.31-0.56,0.67-0.74,1.09
			c-0.18,0.42-0.27,0.87-0.27,1.36c0,0.5,0.09,0.96,0.26,1.38c0.17,0.42,0.41,0.78,0.71,1.09c0.3,0.3,0.67,0.54,1.09,0.72
			c0.42,0.17,0.88,0.26,1.39,0.26c0.48,0,0.94-0.09,1.36-0.27s0.79-0.43,1.11-0.74c0.31-0.31,0.56-0.68,0.74-1.1
			c0.18-0.42,0.27-0.88,0.27-1.36C288,16.57,287.91,16.11,287.74,15.69z M287.01,18.17c-0.13,0.33-0.31,0.61-0.54,0.86
			c-0.23,0.25-0.52,0.44-0.85,0.58c-0.33,0.14-0.7,0.22-1.11,0.22c-0.38,0-0.73-0.07-1.05-0.2c-0.32-0.13-0.61-0.32-0.84-0.57
			s-0.42-0.54-0.55-0.88c-0.13-0.34-0.2-0.72-0.2-1.13c0-0.37,0.06-0.72,0.19-1.05c0.13-0.33,0.31-0.62,0.55-0.86
			s0.52-0.44,0.85-0.58c0.33-0.14,0.7-0.21,1.1-0.21c0.38,0,0.73,0.06,1.05,0.19c0.32,0.13,0.61,0.32,0.84,0.56s0.42,0.54,0.55,0.88
			c0.13,0.34,0.2,0.72,0.2,1.14C287.2,17.49,287.14,17.84,287.01,18.17z M286.09,18.48l-0.21-0.57c-0.09-0.22-0.19-0.39-0.32-0.51
			c-0.12-0.11-0.26-0.19-0.4-0.24c0.26-0.06,0.47-0.18,0.62-0.33c0.15-0.16,0.23-0.38,0.23-0.66c0-0.18-0.03-0.34-0.1-0.47
			c-0.06-0.13-0.16-0.24-0.29-0.33c-0.13-0.09-0.28-0.15-0.46-0.19c-0.18-0.04-0.39-0.06-0.63-0.06h-1.02
			c-0.13,0-0.23,0.04-0.29,0.11c-0.07,0.07-0.1,0.18-0.1,0.31v3.18c0,0.06,0.03,0.11,0.09,0.13c0.06,0.02,0.18,0.04,0.36,0.04
			c0.18,0,0.3-0.01,0.35-0.04c0.05-0.02,0.08-0.07,0.08-0.13v-1.24h0.24c0.19,0,0.34,0.04,0.44,0.13c0.1,0.09,0.18,0.24,0.25,0.46
			l0.19,0.61c0.01,0.05,0.03,0.08,0.05,0.11c0.02,0.03,0.05,0.05,0.09,0.06c0.04,0.01,0.09,0.03,0.15,0.03
			c0.06,0.01,0.14,0.01,0.24,0.01c0.11,0,0.2,0,0.27-0.01c0.06-0.01,0.12-0.01,0.15-0.02c0.04-0.01,0.06-0.02,0.07-0.04
			c0.01-0.02,0.01-0.04,0.01-0.07C286.16,18.7,286.14,18.62,286.09,18.48z M284.92,16.66c-0.09,0.09-0.27,0.14-0.51,0.14h-0.39
			v-0.99h0.41c0.12,0,0.23,0.01,0.31,0.04c0.08,0.02,0.15,0.06,0.2,0.1c0.05,0.04,0.08,0.1,0.1,0.16c0.02,0.06,0.03,0.12,0.03,0.19
			C285.06,16.44,285.01,16.56,284.92,16.66z"/>
	</g>
</g>
</svg>
