<?xml version="1.0" encoding="UTF-8"?>
<svg width="72px" height="47px" viewBox="0 0 72 47" version="1.1" xmlns="http://www.w3.org/2000/svg" xmlns:xlink="http://www.w3.org/1999/xlink">
    <!-- Generator: Sketch 42 (36781) - http://www.bohemiancoding.com/sketch -->
    <title>icon-service</title>
    <desc>Created with Sketch.</desc>
    <defs></defs>
    <g id="Page-1" stroke="none" stroke-width="1" fill="none" fill-rule="evenodd">
        <g id="solutions" transform="translate(-552.000000, -1358.000000)" fill-rule="nonzero" fill="#9A9B9E">
            <g id="section---intro" transform="translate(206.000000, 1026.000000)">
                <g id="4-col" transform="translate(0.000000, 249.000000)">
                    <g id="Group-18-Copy" transform="translate(260.000000, 0.000000)">
                        <path d="M95.7317666,83 C92.4887666,83 89.8047666,85.554 89.8047666,88.745 L89.8047666,92.269 L86.8687666,92.269 L86.7007666,92.269 C86.3097666,92.325 85.9737666,92.713 86.0017666,93.129 C86.0577666,93.545 86.4767666,93.878 86.8687666,93.822 L104.594767,93.822 C105.013767,93.822 105.377767,93.462 105.377767,93.046 C105.377767,92.629 105.014767,92.269 104.594767,92.269 L91.3977666,92.269 L91.3977666,88.745 C91.3977666,86.414 93.2987666,84.555 95.7307666,84.555 L134.705767,84.555 L145.944767,100.873 C146.085767,101.095 146.336767,101.206 146.588767,101.206 L154.053767,101.206 C154.836767,101.206 155.451767,101.816 155.451767,102.621 L155.451767,118.606 C155.451767,119.411 154.807767,120.021 154.053767,120.021 L151.677767,120.021 C151.117767,115.665 147.427767,112.306 143.009767,112.306 C138.592767,112.306 134.929767,115.692 134.370767,120.021 L112.450767,120.021 C111.919767,115.665 108.228767,112.306 103.810767,112.306 C99.3937666,112.306 95.7027666,115.664 95.1437666,119.965 C92.9907666,119.716 91.3967666,117.967 91.3967666,115.83 C91.3967666,115.358 90.8937666,114.942 90.4177666,115.053 C90.0827666,115.137 89.8027666,115.47 89.8027666,115.83 C89.8027666,118.8 92.1237666,121.269 95.0867666,121.575 C95.3107666,126.237 99.1407666,129.983 103.809767,129.983 C108.451767,129.983 112.281767,126.264 112.504767,121.575 L134.312767,121.575 C134.536767,126.264 138.338767,129.983 143.007767,129.983 C147.677767,129.983 151.479767,126.264 151.702767,121.575 L154.051767,121.575 C155.700767,121.575 157.015767,120.215 157.015767,118.605 L157.015767,102.621 C157.015767,101.012 155.673767,99.624 154.051767,99.624 L147.005767,99.624 L135.768767,83.334 C135.600767,83.111 135.349767,83 135.097767,83 L95.7317666,83 Z M116.756767,87.579 C116.337767,87.579 115.945767,87.968 115.945767,88.385 L115.945767,100.429 C115.945767,100.845 116.337767,101.234 116.756767,101.234 L140.660767,101.234 C141.220767,101.207 141.639767,100.457 141.304767,100.013 L133.028767,87.94 C132.888767,87.718 132.637767,87.607 132.385767,87.579 L116.756767,87.579 Z M117.539767,89.161 L131.938767,89.161 L139.179767,99.651 L117.539767,99.651 L117.539767,89.161 L117.539767,89.161 Z M86.7847666,101.678 C86.3657666,101.705 86.0297666,102.121 86.0297666,102.51 C86.0577666,102.927 86.4767666,103.287 86.8687666,103.26 L100.540767,103.26 C100.959767,103.26 101.323767,102.871 101.323767,102.483 C101.323767,102.067 100.960767,101.678 100.540767,101.678 L86.8687666,101.678 L86.7847666,101.678 L86.7847666,101.678 Z M86.7007666,111.14 C86.2817666,111.196 85.9737666,111.584 86.0017666,112 C86.0577666,112.417 86.4767666,112.75 86.8687666,112.694 L96.4867666,112.694 C96.8787666,112.694 97.2697666,112.333 97.2697666,111.917 C97.2697666,111.501 96.8777666,111.14 96.4867666,111.14 L86.8687666,111.14 L86.7007666,111.14 L86.7007666,111.14 Z M103.811767,113.916 C107.753767,113.916 110.969767,117.136 110.969767,121.159 C110.969767,125.155 107.754767,128.43 103.811767,128.43 C99.8417666,128.43 96.6267666,125.155 96.6267666,121.159 C96.6267666,117.136 99.8417666,113.916 103.811767,113.916 L103.811767,113.916 Z M143.009767,113.916 C146.980767,113.916 150.195767,117.136 150.195767,121.159 C150.195767,125.155 146.980767,128.43 143.009767,128.43 C139.039767,128.43 135.852767,125.155 135.852767,121.159 C135.852767,117.136 139.039767,113.916 143.009767,113.916 L143.009767,113.916 Z M103.811767,117.219 C101.658767,117.219 99.8977666,118.967 99.8977666,121.159 C99.8977666,123.324 101.658767,125.1 103.811767,125.1 C105.936767,125.1 107.726767,123.324 107.726767,121.159 C107.725767,118.967 105.936767,117.219 103.811767,117.219 L103.811767,117.219 Z M143.009767,117.219 C140.857767,117.219 139.123767,118.967 139.123767,121.159 C139.123767,123.324 140.856767,125.1 143.009767,125.1 C145.162767,125.1 146.896767,123.324 146.896767,121.159 C146.896767,118.967 145.162767,117.219 143.009767,117.219 L143.009767,117.219 Z M103.811767,118.772 C105.097767,118.772 106.132767,119.827 106.132767,121.159 C106.132767,122.464 105.097767,123.518 103.811767,123.518 C102.497767,123.518 101.463767,122.463 101.463767,121.159 C101.463767,119.827 102.497767,118.772 103.811767,118.772 L103.811767,118.772 Z M143.009767,118.772 C144.323767,118.772 145.358767,119.827 145.358767,121.159 C145.358767,122.464 144.324767,123.518 143.009767,123.518 C141.696767,123.518 140.660767,122.463 140.660767,121.159 C140.660767,119.827 141.696767,118.772 143.009767,118.772 L143.009767,118.772 Z" id="icon-service"></path>
                    </g>
                </g>
            </g>
        </g>
    </g>
</svg>