<?xml version="1.0" encoding="UTF-8"?>
<svg width="66px" height="61px" viewBox="0 0 66 61" version="1.1" xmlns="http://www.w3.org/2000/svg" xmlns:xlink="http://www.w3.org/1999/xlink">
    <!-- Generator: Sketch 42 (36781) - http://www.bohemiancoding.com/sketch -->
    <title>icon-safety</title>
    <desc>Created with Sketch.</desc>
    <defs></defs>
    <g id="Page-1" stroke="none" stroke-width="1" fill="none" fill-rule="evenodd">
        <g id="solutions" transform="translate(-296.000000, -1343.000000)" fill-rule="nonzero" fill="#9A9B9E">
            <g id="section---intro" transform="translate(206.000000, 1026.000000)">
                <g id="4-col" transform="translate(0.000000, 249.000000)">
                    <g id="Group-18" transform="translate(0.000000, 26.000000)">
                        <path d="M139.390966,42.0015918 L139.390966,42.0015918 C136.751411,41.946491 134.111856,43.3240107 132.682097,45.8035461 C131.637273,47.5667713 130.868319,50.4320123 130.812412,53.1870516 C130.757421,54.5645713 130.868319,55.942091 131.197347,57.0992075 C131.582282,58.3114248 132.243088,59.303239 133.232921,59.9093477 C134.056865,60.4052548 135.046698,60.4052548 136.037448,60.2950532 C135.542531,60.9562626 134.937633,61.6174721 134.277745,62.4439839 C134.221837,62.3888831 134.167763,62.3888831 134.167763,62.3888831 L116.240785,62.3888831 L117.010655,61.0664642 C117.450581,60.350154 117.175627,59.303239 116.405757,58.8624327 L114.481081,57.760417 C114.206128,57.5951146 113.876183,57.5400138 113.546239,57.5400138 C113.051322,57.5951146 112.556406,57.8706185 112.281452,58.3665256 L110.136813,62.1133792 L97.9838619,62.1133792 C97.3789638,62.1133792 96.8290565,62.6092862 96.8290565,63.2153949 L96.8290565,66.4663414 C96.8290565,67.07245 97.3789638,67.5683571 97.9838619,67.5683571 L106.947351,67.5683571 L105.242638,70.5989004 C104.802713,71.3703114 105.022675,72.3621256 105.792546,72.8029319 L107.717221,73.9049476 C108.487092,74.3457539 109.476925,74.0711683 109.916851,73.2997573 L113.711211,66.7418453 C116.570729,67.2377524 119.65021,67.5683571 122.069802,68.3948689 C124.544385,69.2213807 126.250014,70.3784972 126.689024,72.8580327 L126.689024,72.8580327 C125.754181,74.6763587 124.875246,76.659987 124.15945,78.9191193 L124.049469,79.08534 L123.499561,77.8180219 C123.169617,77.1017116 122.509728,76.659987 121.684867,76.659987 L119.485238,76.659987 C119.045312,76.659987 118.605386,76.8262077 118.385423,77.1558941 C118.16546,77.4864988 118.16546,77.9282234 118.330432,78.313929 L113.876183,77.3221148 L113.821192,77.3221148 C112.336443,77.0456925 111.236628,76.8262077 110.246795,76.7701886 C109.421934,76.7701886 108.707054,76.8803901 107.937184,77.2660957 C107.222305,77.5967004 106.507425,78.2037274 105.682564,79.0293208 L105.682564,79.08534 L90.7250853,95.3400722 C90.3401502,95.7799602 90.0651965,96.330968 90.0102058,96.8828943 C89.9552151,97.4339021 90.1201873,98.0400108 90.5601131,98.4257163 L91.9348814,99.803236 L91.9348814,99.8592551 L91.9348814,99.8592551 L93.3646404,101.236775 C93.7495755,101.676663 94.3544736,101.841965 94.9043809,101.787783 C95.4542882,101.7336 96.0041955,101.457178 96.4441214,101.071472 L110.961674,87.7370819 L123.114626,91.5390362 C123.499561,91.705257 123.829506,91.7594394 124.15945,91.869641 L128.448727,101.787783 C128.778671,102.559194 129.43856,103 130.263421,103 L132.462134,103 C132.847069,103 133.286995,102.833779 133.561949,102.448074 C133.781911,102.062368 133.781911,101.62248 133.617856,101.236775 L129.548542,91.869641 L130.20843,91.3737339 C131.088282,90.6574237 131.859069,89.6105087 132.847986,88.2880898 L132.847986,88.2880898 L145.111835,69.057915 L145.111835,69.057915 C145.715817,67.9558993 145.991687,67.0191859 146.156659,66.1926741 L146.21165,66.1375733 C146.267557,66.1375733 146.267557,66.1375733 146.321631,66.0824725 L154.790204,62.4458206 C155.560074,62.1152158 156,61.3989056 156,60.6274946 L156,58.4234631 C156,57.9826568 155.834111,57.5969513 155.449176,57.3214474 C155.120148,57.1010442 154.625232,57.1010442 154.294371,57.2663466 L145.495854,61.0683009 C145.055928,60.0764867 144.616002,59.1397733 144.450113,58.1479592 C144.285141,56.9357418 144.450113,55.5031214 145.769891,53.3541907 L145.769891,53.3541907 C147.859539,49.7175387 146.593835,45.0890726 142.964447,42.9952427 C141.919623,42.389134 140.709827,42.0585293 139.555022,42.0034285 C139.500948,42.0015918 139.44504,42.0015918 139.390966,42.0015918 L139.390966,42.0015918 Z M139.390966,43.3791115 L139.390966,43.3791115 C140.380799,43.3791115 141.370632,43.6546154 142.305475,44.2056233 C145.274974,45.9137477 146.319798,49.6606012 144.560095,52.6360437 L144.616002,52.6360437 C143.241234,54.9502768 142.911289,56.8237036 143.131252,58.3114248 C143.296225,59.6338437 143.791141,60.6256579 144.231067,61.6174721 L132.40806,66.7418453 L132.40806,66.7418453 C134.882643,63.711302 137.192253,61.6174721 138.346142,59.5236422 C138.622012,58.9726343 138.071189,58.3665256 137.46629,58.5869288 C136.036531,59.1379366 134.772661,59.1930374 133.946884,58.6971303 C133.286995,58.3665256 132.847069,57.6502154 132.517125,56.713502 C132.242171,55.7216878 132.13219,54.5094705 132.13219,53.2421524 C132.242171,50.7075162 133.012041,47.9524768 133.835986,46.4647556 C135.046698,44.4260264 137.19042,43.3230924 139.390966,43.3791115 L139.390966,43.3791115 Z M154.677473,58.5869288 L154.677473,60.6256579 C154.677473,60.7358595 154.402519,61.121565 154.292538,61.1766658 L145.384039,65.0337209 L145.328132,65.0337209 L145.328132,65.0337209 L128.830913,71.8662185 C129.435811,70.8193035 130.040709,69.8825902 130.700598,68.9458768 L145.494021,62.5541855 C145.549011,62.4990847 145.604002,62.4990847 145.658993,62.4439839 L154.677473,58.5869288 L154.677473,58.5869288 Z M113.655304,58.9166151 C113.710295,58.9166151 113.765285,58.9166151 113.820276,58.9717159 L115.744952,60.0737317 C115.854933,60.1288325 115.909924,60.2941348 115.799942,60.4043364 L108.761129,72.6367112 C108.706138,72.7469128 108.541166,72.8020135 108.431184,72.7469128 L106.506509,71.5897962 C106.341537,71.5346954 106.341537,71.4244939 106.396527,71.2591915 L108.706138,67.236834 C108.981092,66.7960277 108.651147,66.2450199 108.156231,66.2450199 L98.2029083,66.2450199 L98.2029083,63.4348797 L110.520832,63.4348797 C110.740795,63.4348797 111.015749,63.3246781 111.12573,63.104275 L113.435341,59.0268167 C113.489415,58.9726343 113.600313,58.9166151 113.655304,58.9166151 L113.655304,58.9166151 Z M115.469998,63.7664028 L133.122023,63.7664028 C132.571199,64.4276122 132.022208,65.0888217 131.362319,65.8602327 C130.152523,67.4030547 128.831829,69.1662799 127.62295,71.2050091 C126.687191,69.1111791 124.763432,67.843861 122.453821,67.07245 C119.979238,66.301039 117.11972,65.9704343 114.425174,65.529628 L115.469998,63.7664028 L115.469998,63.7664028 Z M144.670076,66.7969461 C144.505104,67.2928532 144.231067,67.7887602 143.955197,68.3948689 L131.748171,87.5148421 C130.812412,88.837261 130.043458,89.7739744 129.383569,90.3259006 L128.998634,90.6014045 L124.708441,80.628162 L125.369246,79.5812471 C125.369246,79.5252279 125.424237,79.4710455 125.424237,79.4150264 C126.084126,77.3221148 126.908987,75.448688 127.788838,73.7956644 L144.670076,66.7969461 L144.670076,66.7969461 Z M119.649294,77.9824059 L121.683951,77.9824059 C121.848923,77.9824059 122.178867,78.2579098 122.233858,78.3681114 L123.11371,80.296639 L123.11371,80.3526581 L128.172857,92.034025 C128.172857,92.034025 128.172857,92.034025 128.172857,92.0900441 L132.297162,101.62248 L130.262505,101.62248 C130.096616,101.62248 129.767588,101.402077 129.711681,101.236775 L125.422404,91.3737339 L125.422404,91.3158781 L120.088303,79.0284025 L120.088303,78.9733017 L119.649294,77.9824059 L119.649294,77.9824059 Z M110.244962,78.1467899 C111.014832,78.1467899 112.059656,78.3671931 113.599397,78.642697 L113.599397,78.642697 L118.988488,79.8549143 L123.497728,90.2689631 L111.014832,86.3568072 C110.794869,86.2466056 110.519916,86.3007881 110.354943,86.4670088 L95.5624366,100.021802 C95.287483,100.242206 95.0125293,100.407508 94.7925664,100.407508 C94.5726035,100.462609 94.4076313,100.407508 94.2976498,100.297306 L92.9228815,98.9197867 L93.032863,99.0299883 C92.9778723,98.9748875 92.9228815,98.8646859 92.8129001,98.8095851 L92.8129001,98.8095851 L92.8678908,98.8656043 L91.4931225,97.4880846 C91.4381318,97.377883 91.3281503,97.2676814 91.3831411,96.9921775 C91.3831411,96.7717743 91.5481133,96.4962704 91.7680762,96.2207665 L106.670564,80.0202167 C107.440435,79.1946232 108.045333,78.6987161 108.59524,78.4773946 C109.091073,78.202809 109.58599,78.0926075 110.244962,78.1467899 L110.244962,78.1467899 Z" id="icon-safety"></path>
                    </g>
                </g>
            </g>
        </g>
    </g>
</svg>