<?xml version="1.0" encoding="UTF-8"?>
<svg width="42px" height="63px" viewBox="0 0 42 63" version="1.1" xmlns="http://www.w3.org/2000/svg" xmlns:xlink="http://www.w3.org/1999/xlink">
    <!-- Generator: Sketch 42 (36781) - http://www.bohemiancoding.com/sketch -->
    <title>icon-fuel</title>
    <desc>Created with Sketch.</desc>
    <defs></defs>
    <g id="Page-1" stroke="none" stroke-width="1" fill="none" fill-rule="evenodd">
        <g id="solutions" transform="translate(-1093.000000, -1345.000000)" fill-rule="nonzero" fill="#9A9B9E">
            <g id="section---intro" transform="translate(206.000000, 1026.000000)">
                <g id="4-col" transform="translate(0.000000, 249.000000)">
                    <g id="Group-18-Copy-2" transform="translate(529.000000, 40.000000)">
                        <path d="M365.864098,30 C364.25131,30 362.936536,31.3146714 362.936536,32.9017364 L362.936536,36.8448748 L358.645116,36.8448748 C358.298015,36.8448748 358,37.1917168 358,37.5394347 L358,75.7367265 C358,77.6715094 359.588246,79.2576986 361.522716,79.2576986 L362.936536,79.2576986 L362.936536,83.1771886 L360.90302,83.1771886 C359.314773,83.1771886 358,84.4927359 358,86.0798009 L358,90.0982636 C358,91.6862045 359.314773,93 360.90302,93 L397.09698,93 C398.709769,93 400,91.6862045 400,90.0982636 L400,86.0798009 C400,84.49186 398.685227,83.1771886 397.09698,83.1771886 L395.038045,83.1771886 L395.038045,32.9017364 C395.038045,31.3137955 393.723271,30 392.135025,30 L365.864098,30 L365.864098,30 Z M365.864098,31.3891198 L392.135902,31.3891198 C392.97911,31.3891198 393.649644,32.0591556 393.649644,32.9026123 L393.649644,83.1771886 L364.350356,83.1771886 L364.350356,32.9017364 C364.350356,32.0582797 364.995471,31.3891198 365.864098,31.3891198 L365.864098,31.3891198 Z M368.468226,36.8457507 C368.072041,36.8457507 367.823987,37.2670411 367.823987,37.5403106 L367.823987,48.6024691 C367.823987,48.9493111 368.146545,49.297029 368.518188,49.297029 L389.430974,49.297029 C389.803494,49.297029 390.149717,48.950187 390.149717,48.6024691 L390.149717,37.5403106 C390.149717,37.1680685 389.802617,36.8457507 389.430974,36.8457507 L368.468226,36.8457507 L368.468226,36.8457507 Z M359.389277,38.2348705 L362.936536,38.2348705 L362.936536,39.3507208 L361.201035,39.3507208 C360.828516,39.3507208 360.505958,39.6730387 360.505958,40.0452808 L360.505958,47.9569576 L359.390154,47.9569576 L359.390154,38.2348705 L359.389277,38.2348705 Z M369.213265,38.2348705 L388.735897,38.2348705 L388.735897,47.883385 L369.213265,47.883385 L369.213265,38.2348705 L369.213265,38.2348705 Z M361.894359,40.7389648 L362.93566,40.7389648 L362.93566,77.8703305 L361.52184,77.8703305 C360.331532,77.8703305 359.388401,76.9279011 359.388401,75.7367265 L359.388401,49.3706016 L361.199282,49.3706016 C361.570925,49.3706016 361.893482,49.0237595 361.893482,48.6515175 L361.893482,40.7389648 L361.894359,40.7389648 Z M360.90302,84.5663084 L397.09698,84.5663084 C397.941065,84.5663084 398.610723,85.23722 398.610723,86.0806768 L398.610723,90.0991394 C398.610723,90.9425962 397.941065,91.611756 397.09698,91.611756 L360.90302,91.611756 C360.059812,91.611756 359.389277,90.9425962 359.389277,90.0991394 L359.389277,86.0806768 C359.389277,85.23722 360.059812,84.5663084 360.90302,84.5663084 L360.90302,84.5663084 Z" id="icon-fuel"></path>
                    </g>
                </g>
            </g>
        </g>
    </g>
</svg>