<?xml version="1.0" encoding="UTF-8"?>
<svg width="52px" height="57px" viewBox="0 0 52 57" version="1.1" xmlns="http://www.w3.org/2000/svg" xmlns:xlink="http://www.w3.org/1999/xlink">
    <!-- Generator: Sketch 42 (36781) - http://www.bohemiancoding.com/sketch -->
    <title>icon-productivity</title>
    <desc>Created with Sketch.</desc>
    <defs></defs>
    <g id="Page-1" stroke="none" stroke-width="1" fill="none" fill-rule="evenodd">
        <g id="solutions" transform="translate(-822.000000, -1349.000000)" fill-rule="nonzero" fill="#9A9B9E">
            <g id="section---intro" transform="translate(206.000000, 1026.000000)">
                <g id="4-col" transform="translate(0.000000, 249.000000)">
                    <g id="Group-18" transform="translate(0.000000, 26.000000)">
                        <path d="M641.911655,48 C641.886541,48.0249621 641.861428,48.0249621 641.836314,48.0249621 L637.166118,48.0249621 L637.040551,48.0249621 C636.663849,48.0757777 636.362489,48.4288127 636.387602,48.8068098 C636.437829,49.1856984 636.789416,49.4888093 637.166118,49.4629557 L641.283819,49.4629557 L641.283819,52.7686473 C627.248116,53.1466444 616,64.7031922 616,78.8843236 C616,93.2918967 627.64993,105 641.987892,105 C656.349173,105 668,93.2918967 668,78.8843236 C668,71.919014 665.288649,65.6116333 660.868689,60.9437259 L663.230246,58.572329 L666.141608,61.499132 C666.393639,61.8013513 666.89501,61.8263134 667.196371,61.5499476 C667.473515,61.2717988 667.448402,60.7422463 667.121031,60.489951 L663.857185,57.2101131 L663.857185,57.2101131 L663.832968,57.1592974 C663.757628,57.0585576 663.682288,56.9569263 663.555824,56.9070022 L660.317091,53.6262727 C660.166411,53.4747173 659.94039,53.3989396 659.738586,53.4239017 C659.186988,53.4747173 658.935854,54.2574566 659.312555,54.6345621 L662.223916,57.5613651 L659.864153,59.9086914 C655.368853,55.618781 649.343429,52.9442733 642.714387,52.7677558 L642.714387,49.4620642 L646.832089,49.4620642 C647.20879,49.4620642 647.534367,49.1090292 647.534367,48.7310321 C647.534367,48.3779971 647.20879,48.0240706 646.832089,48.0240706 L642.212119,48.0240706 C642.111665,48 642.012108,48 641.911655,48 L641.911655,48 Z M641.986995,54.1825703 C655.594874,54.1825703 666.568536,65.2336362 666.568536,78.8852151 C666.568536,92.510049 655.595771,103.58786 641.986995,103.58786 C628.402435,103.58786 617.405454,92.510049 617.405454,78.8852151 C617.405454,65.2336362 628.402435,54.1825703 641.986995,54.1825703 L641.986995,54.1825703 Z M641.911655,58.749738 C641.560067,58.8005537 641.283819,59.1277351 641.283819,59.4807701 L641.283819,74.1914541 C639.023613,74.519527 637.291685,76.5129268 637.291685,78.8852151 C637.291685,81.4839451 639.401211,83.6039383 641.986995,83.6039383 C644.597892,83.6039383 646.733429,81.4839451 646.733429,78.8852151 C646.733429,76.5129268 644.974593,74.5204185 642.715284,74.1914541 L642.715284,59.4807701 C642.714387,59.0769195 642.313469,58.6989224 641.911655,58.749738 L641.911655,58.749738 Z M641.986995,75.55367 C643.84449,75.55367 645.326181,77.0424793 645.326181,78.8843236 C645.326181,80.7261679 643.84449,82.1900152 641.986995,82.1900152 C640.153716,82.1900152 638.698035,80.7261679 638.698035,78.8843236 C638.698035,77.0424793 640.153716,75.55367 641.986995,75.55367 L641.986995,75.55367 Z" id="icon-productivity"></path>
                    </g>
                </g>
            </g>
        </g>
    </g>
</svg>