<svg id="Layer_1" data-name="Layer 1" xmlns="http://www.w3.org/2000/svg" viewBox="0 0 566.38 64.97"><defs><style>.cls-1{fill:#e2231a;}</style></defs><title>Verizon-Telematics-alt</title><path d="M284.9,30.8h4.42V21.4h8.51v9.4h5.75v5.53h-5.75V50.92c0,2.21,1.22,2.82,3.26,2.82.55,0,1.44-.06,2-.11h.44v6.47a28.71,28.71,0,0,1-5,.44c-5.47,0-9.18-1.77-9.18-7.74V36.32H284.9Z"/><path d="M306.73,45.55c0-8.84,6.14-15.59,15.09-15.59a14.42,14.42,0,0,1,10.11,3.76c3.32,3.2,4.81,8.18,4.75,14H315.24c.55,4.42,2.93,7.07,7.13,7.07,2.71,0,4.42-1,5.36-2.87h8.4c-1.49,5.2-6.3,9.18-13.87,9.18C312.65,61.09,306.73,54.34,306.73,45.55Zm8.57-2.87h12.55c-.28-4.09-2.6-6.58-6-6.58C317.84,36.1,315.85,38.65,315.3,42.68Z"/><path d="M341.16,19.08h8.73V60.2h-8.73Z"/><path d="M354.32,45.55c0-8.84,6.14-15.59,15.09-15.59a14.42,14.42,0,0,1,10.11,3.76c3.32,3.2,4.81,8.18,4.75,14H362.83c.55,4.42,2.93,7.07,7.13,7.07,2.71,0,4.42-1,5.36-2.87h8.4c-1.49,5.2-6.3,9.18-13.87,9.18C360.23,61.09,354.32,54.34,354.32,45.55Zm8.57-2.87h12.55c-.28-4.09-2.6-6.58-6-6.58C365.42,36.1,363.44,38.65,362.88,42.68Z"/><path d="M388.64,30.8H397v4.59h.16A9.41,9.41,0,0,1,406,30c3.87,0,6.58,1.93,8.07,5.58h.11c2.43-3.92,5.64-5.58,9.34-5.58,6.52,0,9.89,4.31,9.89,10.83V60.2h-8.62v-18c0-3.21-1.55-5.14-4.37-5.14-3.09,0-5,2.6-5,6.36V60.2h-8.68v-18c0-3.21-1.44-5.14-4.31-5.14-3,0-5.09,2.6-5.09,6.36V60.2h-8.68Z"/><path d="M456.78,56.61h-.11c-1.93,2.71-4.37,4.37-8.9,4.37-5.8,0-10.06-3.09-10.06-8.9,0-6.52,5.14-8.18,11.55-9,5.25-.72,7.41-1.55,7.41-3.76s-1.38-3.54-4.37-3.54c-3.32,0-4.92,1.55-5.14,3.87h-8c.22-5,4.31-9.73,13-9.73,3.76,0,6.41.55,8.46,1.77,3,1.77,4.48,4.81,4.48,8.79V55.61c0,2.32.33,3.59,1.11,4.09v.5h-8.46A8.54,8.54,0,0,1,456.78,56.61Zm.11-7V45.83a18.32,18.32,0,0,1-5.08,1.66c-3.81.83-5.64,1.77-5.64,4.31s1.93,3.48,4.31,3.48C454.35,55.28,456.89,52.85,456.89,49.64Z"/><path d="M469,30.8h4.42V21.4h8.51v9.4h5.75v5.53h-5.75V50.92c0,2.21,1.22,2.82,3.26,2.82.55,0,1.44-.06,2-.11h.44v6.47a28.71,28.71,0,0,1-5,.44c-5.47,0-9.18-1.77-9.18-7.74V36.32H469Z"/><path d="M492.15,19.08h8.79v7.57h-8.79Zm.05,11.72h8.68V60.2h-8.68Z"/><path d="M505.25,45.55c0-8.84,6-15.59,15.26-15.59,7.85,0,12.71,4.48,13.76,10.89h-8.4c-.61-2.71-2.38-4.42-5.25-4.42-4.37,0-6.58,3.59-6.58,9.12,0,5.36,2.21,9,6.58,9,3.21,0,5.14-1.93,5.53-5.31h8.35c-.28,6.69-5.58,11.88-13.76,11.88C511.33,61.14,505.25,54.34,505.25,45.55Z"/><path d="M536.64,51.14h8.18c.5,2.76,2.6,4.31,6,4.31,3.09,0,4.86-1.27,4.86-3.37,0-2.65-3.48-3-7.57-3.76-5.25-1-10.56-2.32-10.56-9.18,0-6,5.47-9.18,12.38-9.18,8.18,0,12.27,3.54,13,8.68h-8.07q-.83-3.15-5-3.15c-2.65,0-4.37,1.11-4.37,3,0,2.21,3.21,2.54,7.24,3.26C558,42.68,564,44.06,564,51.47c0,6.36-5.64,9.67-13.26,9.67C542.22,61.14,537.08,57.05,536.64,51.14Z"/><polygon class="cls-1" points="269.89 2.19 254.98 34.16 249.34 22.03 243.25 22.03 252.51 41.86 257.43 41.86 275.93 2.19 269.89 2.19 269.89 2.19"/><path d="M111.46,8h12.12V18.71H111.46V8ZM16.12,61.55H28.78L42.52,22H30.4l-7.72,25.4h-.16L14.81,22H2.38L16.12,61.55Zm44.46-32c4.25,0,7.18,3.16,7.64,7.8H52.1c.92-4.71,3.47-7.8,8.49-7.8M61.2,54c-5.32,0-8.57-3.47-9.18-8.8H80.5c.08-8.49-2.16-15.29-6.87-19.53-3.32-3.09-7.72-4.79-13.28-4.79-11.89,0-20.15,9-20.15,20.84s7.87,21,20.92,21a20.67,20.67,0,0,0,12.12-3.55,15.66,15.66,0,0,0,6.64-9.34H68.31C67.15,52.44,64.76,54,61.2,54m22.16,7.56h12V43.41c0-8.26,4.94-11.89,12.51-10.89h.23V22.1a6.8,6.8,0,0,0-2.47-.31c-4.71,0-7.87,2.16-10.57,6.79h-.23V22H83.36V61.55Zm28.1,0h12.12V22H111.46V61.55Zm15.44,0h33.81V52.05H141.56v-.23l18.29-20.54V22h-33v9.49h18.53v.23L126.89,52.44v9.11Zm55.19-7.64c-5.71,0-8.73-4.78-8.73-12s3-12,8.73-12,8.88,4.71,8.88,12-3.17,12-8.88,12m.07-33c-12.58,0-21,9-21,20.92s8.41,20.92,21,20.92,21-9.11,21-20.92-8.41-20.92-21-20.92m23.62,40.6h12v-22c0-5,2.93-8.57,7.26-8.57,4.17,0,6.33,2.93,6.33,7.1V61.55h12V35.77c0-8.72-5.25-14.9-13.74-14.9-5.4,0-9.18,2.32-12,6.56h-.23V22H205.78V61.55Z"/></svg>